<?xml version="1.0" encoding="UTF-8" standalone="no"?>
<!-- Created with Inkscape (http://www.inkscape.org/) -->

<svg
   width="512"
   height="512"
   viewBox="0 0 135.46667 135.46667"
   version="1.1"
   id="svg1"
   inkscape:version="1.3.2 (091e20e, 2023-11-25, custom)"
   sodipodi:docname="Alter.svg"
   xmlns:inkscape="http://www.inkscape.org/namespaces/inkscape"
   xmlns:sodipodi="http://sodipodi.sourceforge.net/DTD/sodipodi-0.dtd"
   xmlns="http://www.w3.org/2000/svg"
   xmlns:svg="http://www.w3.org/2000/svg"
   xmlns:rdf="http://www.w3.org/1999/02/22-rdf-syntax-ns#"
   xmlns:cc="http://creativecommons.org/ns#"
   xmlns:dc="http://purl.org/dc/elements/1.1/">
  <title
     id="title1">Alter</title>
  <sodipodi:namedview
     id="namedview1"
     pagecolor="#ffffff"
     bordercolor="#666666"
     borderopacity="1.0"
     inkscape:showpageshadow="2"
     inkscape:pageopacity="0.0"
     inkscape:pagecheckerboard="0"
     inkscape:deskcolor="#d1d1d1"
     inkscape:document-units="mm"
     showgrid="false"
     inkscape:zoom="1"
     inkscape:cx="387"
     inkscape:cy="299.5"
     inkscape:window-width="3840"
     inkscape:window-height="2107"
     inkscape:window-x="-8"
     inkscape:window-y="-8"
     inkscape:window-maximized="1"
     inkscape:current-layer="layer1" />
  <defs
     id="defs1">
    <pattern
       id="EMFhbasepattern"
       patternUnits="userSpaceOnUse"
       width="6"
       height="6"
       x="0"
       y="0" />
  </defs>
  <g
     inkscape:label="Layer 1"
     inkscape:groupmode="layer"
     id="layer1">
    <path
       id="path12-0"
       style="fill:#000000;fill-opacity:1;stroke:none;stroke-width:0.219939;stroke-linecap:butt;stroke-linejoin:miter;stroke-dasharray:none;stroke-opacity:1"
       d="m 68.089167,3.4152386 c -3.135593,0.00152 -6.603614,0.5854785 -10.494891,1.2991986 -1.05576,0.1936485 -0.500361,1.207535 -0.290248,2.2591491 4.872068,0.6410052 10.332912,0.3785323 8.667636,3.8643007 -7.652081,-3.5109427 -23.655108,10.91816 -38.440477,6.245904 1.675339,3.611033 4.133317,6.823568 13.014579,6.770443 -7.045377,5.778349 -12.005436,9.654933 -15.829772,12.411313 l 1.619173,3.296046 c 0.405592,-0.338267 0.87077,-0.738489 1.229241,-1.015918 L 45.870149,22.539303 c 0.182279,-0.420152 0.556657,-0.730808 0.16438,-1.479278 l -9.564658,-0.09792 c 3.781417,-0.61732 8.366022,0.0876 10.912801,-1.841231 15.290566,-8.582777 26.531464,-5.945062 35.891076,1.905927 l 13.231404,-7.653483 c -1.139921,5.12391 -1.529847,7.800774 -3.764669,9.95459 -0.407332,0.914237 -0.20228,0.97873 0.195841,1.183781 6.561405,2.62259 12.051896,6.541672 15.646166,12.752287 l 1.24849,0.06469 1.18377,-2.234652 C 107.71307,29.700937 103.9939,24.664935 96.421228,22.932726 98.475565,19.38118 101.26286,17.493221 99.773231,5.9087113 l -1.050889,0.064704 C 96.081858,9.0062781 97.967426,10.795975 84.917411,16.688623 80.275588,6.2279025 74.98751,3.411935 68.089205,3.4152509 Z M 1.9723842,5.1848023 1.9833333e-6,7.1239577 8.0853717,23.065634 10.25534,24.905106 h 4.666923 z m 131.5236458,0 -12.94988,19.7203037 h 4.66692 l 2.16824,-1.839472 8.08535,-15.9416763 z M 67.71848,7.2340965 C 74.688859,7.2175165 79.555181,10.960207 83.05865,17.13448 79.139911,14.400396 75.512171,11.180823 69.811512,11.416666 70.403251,9.8073869 70.090868,8.349358 67.71848,7.2340965 Z M 71.705208,20.500465 C 38.76955,24.77233 19.193209,49.908047 21.610532,73.833482 l -4.596983,9.115314 c 1.290387,-5.235708 4.043893,-10.1478 3.463913,-16.483747 l -5.50274,3.140426 c 3.964325,-2.306658 6.118766,-5.68401 7.363213,-9.597881 0.0176,-1.024612 0.0585,-2.054471 -0.526318,-2.95859 0.199637,-0.603784 -0.693531,-0.660935 -1.446065,-0.788601 -1.653611,5.680051 -5.50687,10.561593 -11.2502754,14.754408 2.4873344,0.817264 4.9904954,1.911415 7.3719544,0.825316 l -3.287306,17.644787 c 4.363462,-0.758723 5.90497,-3.954709 7.625501,-6.995999 l 0.919746,-0.855057 c 1.252459,9.082136 5.341803,13.296887 10.057752,14.462399 C 29.270897,77.695283 37.299647,64.92307 47.251507,52.514971 44.975564,71.080085 51.25352,74.713047 52.824184,76.722136 55.304065,65.243471 60.537143,57.561361 65.971655,50.016291 61.857959,57.48719 58.751129,66.521957 62.30841,73.749577 63.318353,60.455188 70.36126,48.305704 82.418672,38.25018 88.253336,47.339257 94.298047,52.981615 100.62824,53.8946 l 1.31492,-2.56341 C 93.008007,46.917312 81.219981,34.479809 80.077344,22.388932 L 77.94934,22.277033 c -0.635382,4.690122 -1.168247,9.360585 3.287297,13.081011 C 60.149202,42.288773 54.684218,58.111953 52.180712,65.267258 48.802556,40.89226 61.565488,37.072083 74.121723,31.890651 74.921192,31.964081 75.012826,30.295617 73.987092,30.065153 56.611624,26.161128 28.649901,66.187487 26.588703,81.186236 25.018546,60.4919 22.348215,38.547503 71.836345,22.079425 72.140713,21.53516 72.540182,20.984771 71.705198,20.500465 Z M 7.6027675,25.352767 22.114118,55.244487 22.878242,55.82675 24.070763,52.801738 10.419706,25.957769 Z m 120.2628825,0 -2.81693,0.605002 -20.67331,40.244978 1.55447,0.115412 3.50588,-3.352008 z m -116.477236,1.147034 12.803001,24.862857 0.8533,-0.139881 c 0.81046,-2.074197 1.618432,-4.08918 3.42719,-6.230137 L 18.176347,26.499801 Z m 105.903666,0 -15.78081,28.312792 c 1.41499,3.926392 1.32769,7.27583 1.16279,10.594579 h 1.61567 l 19.78853,-38.907371 z m -15.57974,4.610977 c -1.01658,0.852824 -2.24268,2.244194 -2.825674,3.654513 0.08584,6.765977 2.058574,10.327099 4.798074,12.587907 l 2.10351,-2.365804 c -2.52184,-3.361619 -3.65797,-8.704927 -4.07591,-13.876616 z M 15.037671,42.193184 c -3.006734,1.385144 -5.6840379,2.150939 -9.9878112,3.878343 4.1505902,7.493502 9.6980562,7.719295 15.1181032,8.611674 V 53.434724 L 18.524312,50.147409 12.082594,47.71515 c 1.763933,-0.427934 3.364845,-1.019841 4.831289,-1.701349 z m 103.733679,4.404641 -2.26789,4.798061 3.02327,4.9642 -4.30496,-2.860666 -1.57896,3.549584 c 3.94133,3.717313 9.79216,5.005346 15.83676,1.311447 -4.70731,-2.317686 -8.96499,-6.655161 -10.70822,-11.762626 z M 90.58098,58.2293 c -1.365854,0.02775 -2.794675,0.424753 -4.315462,1.351645 -5.467016,3.670146 -9.119113,7.793097 -13.640568,11.699662 -0.463441,0.510598 0.693933,1.457109 1.479291,1.283431 0.850528,-0.188131 13.92715,-8.861937 14.593536,-10.45291 2.821425,-0.242611 5.924732,-0.467896 8.314431,0.06642 0.743966,-0.394437 0.718128,-0.78938 0.888273,-1.183782 -2.335839,-1.523909 -4.711997,-2.81722 -7.319501,-2.764469 z m 22.17532,0.702927 -1.05265,2.192692 c 3.31782,15.501253 0.38908,26.837916 -4.9292,36.581766 2.21604,-9.215486 5.41673,-17.720782 2.59662,-33.06365 l -3.08971,2.563407 c 2.45948,21.756602 -3.50126,27.184031 -6.24588,38.847888 10.2777,-7.38245 21.27957,-13.673155 14.26479,-47.122103 z M 45.803694,71.777198 a 4.2088037,3.654886 0 0 0 0.842807,4.686159 4.2088037,3.654886 0 0 0 5.17226,0.204577 l -1.306179,-1.839513 a 1.3110309,1.3019427 0 0 1 -1.311424,0.631232 1.3110309,1.3019427 0 0 1 -1.108589,-1.477515 1.3110309,1.3019427 0 0 1 1.050887,-1.084133 l -0.788605,-1.11208 z m 36.819555,0 a 4.2088037,3.654886 0 0 0 0.842817,4.686159 4.2088037,3.654886 0 0 0 5.462525,0.01757 4.2088037,3.654886 0 0 0 0.881265,-4.680889 l -3.381723,-0.01054 -0.0997,1.085862 a 1.3110309,1.3019427 0 0 1 0.06989,0.0047 1.3110309,1.3019427 0 0 1 1.108594,1.475796 1.3110309,1.3019427 0 0 1 -1.48628,1.101587 1.3110309,1.3019427 0 0 1 -1.108594,-1.477544 1.3110309,1.3019427 0 0 1 1.126086,-1.101605 L 85.892995,71.7872 Z m 12.229475,3.012756 c -0.345855,0.0076 -0.685795,0.0564 -1.015915,0.138163 -1.320474,0.326855 -2.522109,1.063927 -3.873074,1.711824 -2.701901,1.295823 -5.903917,2.416705 -11.493324,-0.125895 a 0.78670613,0.78670613 0 0 0 -1.036901,0.389925 0.78670613,0.78670613 0 0 0 0.389925,1.045666 c 5.97486,2.717978 9.967685,1.473261 12.820493,0.1049 1.426418,-0.684124 2.591522,-1.358011 3.568819,-1.599944 0.977324,-0.241943 1.730235,-0.176289 2.829182,0.713408 a 0.78670613,0.78670613 0 0 0 1.110342,-0.118896 0.78670613,0.78670613 0 0 0 -0.118906,-1.103353 c -1.050803,-0.850727 -2.143056,-1.18138 -3.180641,-1.155798 z m -55.454029,0.260535 c -0.490411,0.0047 -0.984767,0.08157 -1.479286,0.255304 a 0.78670613,0.78670613 0 0 0 -0.482605,1.003676 0.78670613,0.78670613 0 0 0 1.005425,0.482613 c 0.862666,-0.303181 1.749811,-0.182347 2.860657,0.199336 1.110822,0.38174 2.384748,1.02393 3.860832,1.578958 2.952188,1.110048 6.78168,1.807902 11.676926,-0.667971 a 0.78670613,0.78670613 0 0 0 0.34971,-1.057877 0.78670613,0.78670613 0 0 0 -1.05613,-0.349702 c -4.509457,2.280735 -7.656772,1.639086 -10.416209,0.60152 -1.379733,-0.518792 -2.645044,-1.15952 -3.906298,-1.592974 -0.788284,-0.270896 -1.59567,-0.46103 -2.413022,-0.452883 z m -4.635449,2.556417 c -1.262553,2.757727 -2.033106,5.678658 -1.982875,8.873979 l 1.1593,4.819043 c 5.423279,5.119508 6.763464,7.135773 7.889533,8.989392 -2.755001,-2.603308 -4.843636,-5.523156 -8.342411,-7.774141 2.563187,21.227861 22.107938,35.040621 23.402811,36.221561 5.655241,3.72866 11.486981,3.90873 17.709481,2.50918 3.425509,-1.12694 24.961098,-17.43031 27.319595,-39.059475 l -6.471444,5.817495 -2.477715,3.14916 1.944404,-3.497132 7.188355,-7.083436 1.64015,-12.222467 c -1.0209,-0.446112 -2.57582,-0.962759 -3.790878,1.727567 l -7.581794,8.345891 c -5.394801,-5.551804 -4.065145,4.364242 -4.953693,4.388903 -0.621243,0.0169 -1.050025,0.538078 -1.502005,0.991454 l -0.281522,-6.880615 c -0.741554,-1.695728 -2.033692,-1.495833 -2.949836,-0.223835 -1.714663,-7.884889 -6.365108,-1.703647 -7.96471,2.063339 -1.616496,0.03418 -2.512328,-0.549882 -2.902633,-1.566719 -2.982749,-11.758835 -6.604696,-7.225606 -8.4071,0.232562 l -2.107019,1.552712 c -2.861127,-2.982749 -4.77672,-11.843329 -10.771175,4.633714 -2.9458,-2.653521 -5.28855,-10.125676 -9.178224,-5.228236 -0.89718,-9.260932 -3.827249,-9.653336 -6.588595,-10.779896 z m 25.394426,17.754957 c 0.01149,1.586716 0.234499,2.604351 0.582272,3.245323 0.347774,0.641003 0.812364,0.915317 1.355143,1.043899 0.542779,0.128241 1.165731,0.09363 1.790534,0.09268 0.624794,-9.49e-4 1.253814,0.02811 1.81152,0.304225 l 0.01928,0.0139 0.01386,0.0122 c 0.67366,0.67596 1.201008,1.00431 1.619164,1.11733 0.418166,0.11301 0.726959,0.0189 1.010674,-0.16438 0.283725,-0.18347 0.537281,-0.46709 0.786859,-0.7344 0.248295,-0.26575 0.495889,-0.52024 0.813086,-0.620734 0.938601,-0.330586 2.044508,-0.389023 3.747178,-0.111898 0.981037,-0.430852 1.367155,-1.047926 1.526485,-1.778291 0.159956,-0.733246 0.07815,-1.57818 0.09268,-2.418282 h 0.216827 c -0.01415,0.822468 0.07796,1.681419 -0.09268,2.463729 -0.170677,0.782269 -0.621603,1.488375 -1.664629,1.942663 l -0.0264,0.01386 -0.03324,-0.0066 c -1.723902,-0.287922 -2.783698,-0.214463 -3.694714,0.106647 -0.246064,0.07644 -0.48193,0.298376 -0.727405,0.561296 -0.245485,0.26277 -0.504615,0.55844 -0.825316,0.76585 -0.320711,0.20844 -0.713561,0.32094 -1.189034,0.19237 -0.466689,-0.12618 -1.014178,-0.48945 -1.685615,-1.15584 -0.0019,-9.5e-4 -0.0047,9.1e-4 -0.0066,0 -0.502422,-0.24683 -1.096972,-0.278917 -1.711843,-0.277996 -0.617188,9.5e-4 -1.251392,0.0321 -1.837747,-0.106656 -0.586406,-0.138779 -1.125226,-0.464522 -1.500309,-1.155844 -0.375074,-0.691318 -0.595253,-1.736604 -0.606752,-3.343281 z m 23.049606,12.107057 c -10.167182,12.1538 -13.458439,9.6689 -28.429944,2.76097 7.307716,2.19298 9.612475,-3.20501 13.278616,-1.47928 4.089976,-2.87883 9.22464,2.87374 15.151328,-1.28169 z m -15.766825,14.5463 c 0.115184,6.6e-4 0.230396,0.002 0.344459,0.007 1.82509,0.075 3.512471,0.6588 5.140798,1.40761 l -0.09268,0.19756 c -3.231395,-1.48591 -6.599483,-2.30378 -10.916294,0.23257 l -0.113664,-0.19232 c 2.052295,-1.20585 3.90948,-1.66188 5.63738,-1.65244 z" />
  </g>
  <metadata
     id="metadata1">
    <rdf:RDF>
      <cc:Work
         rdf:about="">
        <dc:title>Alter</dc:title>
      </cc:Work>
    </rdf:RDF>
  </metadata>
</svg>
