<?xml version="1.0" encoding="UTF-8" standalone="no"?>
<!-- Created with Inkscape (http://www.inkscape.org/) -->

<svg
   width="512"
   height="512"
   viewBox="0 0 135.46666 135.46667"
   version="1.1"
   id="svg5"
   xml:space="preserve"
   inkscape:version="1.2.2 (b0a8486541, 2022-12-01)"
   sodipodi:docname="Ballistic icon.svg"
   xmlns:inkscape="http://www.inkscape.org/namespaces/inkscape"
   xmlns:sodipodi="http://sodipodi.sourceforge.net/DTD/sodipodi-0.dtd"
   xmlns="http://www.w3.org/2000/svg"
   xmlns:svg="http://www.w3.org/2000/svg"><sodipodi:namedview
     id="namedview7"
     pagecolor="#ffffff"
     bordercolor="#000000"
     borderopacity="0.25"
     inkscape:showpageshadow="2"
     inkscape:pageopacity="0"
     inkscape:pagecheckerboard="0"
     inkscape:deskcolor="#d1d1d1"
     inkscape:document-units="mm"
     showgrid="false"
     inkscape:zoom="0.54362802"
     inkscape:cx="574.8416"
     inkscape:cy="314.55332"
     inkscape:window-width="1920"
     inkscape:window-height="1017"
     inkscape:window-x="-8"
     inkscape:window-y="-8"
     inkscape:window-maximized="1"
     inkscape:current-layer="layer1" /><defs
     id="defs2" /><g
     inkscape:label="Layer 1"
     inkscape:groupmode="layer"
     id="layer1"><g
       id="g9252"
       style="fill:#000000;fill-opacity:1;stroke:none"
       transform="matrix(1.6598142,0,0,1.6598142,-111.09272,-178.63262)"><path
         id="path962"
         style="fill:#000000;fill-opacity:1;stroke:none;stroke-width:0.132292;stroke-linecap:round;stroke-linejoin:round;stroke-opacity:1"
         d="m 109.68633,109.53492 c -4.82368,0.34076 -9.66102,-0.45783 -11.159527,2.21226 -2.344656,-1.15758 -4.395089,0.23746 -6.510197,1.06919 -4.182652,1.73513 -5.023921,1.8998 -4.851901,7.88479 -2.060798,2.20161 -3.223264,4.37773 -2.661336,12.33516 1.395005,0.0226 3.432005,-0.15281 3.482475,1.36891 v 1.61179 l -3.432865,-0.1974 v 0.35553 c 1.843911,0.17056 4.607923,-0.63212 3.656624,2.49494 h -3.72122 v 1.33377 c 0.97477,0.58632 1.820124,1.25348 3.226676,1.56993 l -0.946712,3.33416 c -0.940593,-0.46652 -1.806534,-1.20056 -2.25826,-2.04329 -0.816645,-1.52767 -1.427645,-1.28805 -1.527555,0.40877 -0.842603,4.28099 -1.09999,8.40709 1.548742,11.76517 1.92798,2.00154 2.376846,2.74148 2.710429,5.35626 1.325819,7.13207 1.670596,11.37059 4.581116,13.63638 1.185435,0.96192 2.045955,-0.75343 1.742529,3.11919 0.0078,1.30438 0.596374,4.20714 1.247469,3.33364 0.392032,-0.62771 1.031627,-1.19462 0.903304,0.34417 -0.107598,1.89626 2.72348,5.60511 3.355351,4.10828 0.589341,-1.46794 1.367578,0.80866 2.064988,1.48414 1.69867,1.24113 11.42063,1.16925 12.64781,0 1.59338,-1.51685 1.21139,-3.17406 2.8391,-0.73122 1.5789,-0.91731 2.60062,-2.22329 2.94659,-4.00079 0.0791,-0.75338 -0.16543,-2.1931 0.79582,-1.07539 1.31399,1.95802 1.15062,-3.77476 1.35496,-5.80739 5.70406,-2.33543 5.07476,-10.64659 6.64662,-15.83108 0.54891,-3.92502 6.60453,-3.34248 4.10827,-15.48639 -0.19132,-0.97211 -0.21162,-2.62489 -1.44125,-0.45165 -0.57471,0.81698 -1.28217,1.48426 -2.08618,2.04328 l -1.20458,-3.39824 c 1.06233,-0.37241 2.11961,-0.76749 3.09749,-1.50585 -0.44419,-6.1546 1.57221,-16.82398 -1.76423,-17.3793 0.51614,-4.87088 -0.98471,-7.03129 -4.07469,-8.42378 -1.38577,-0.51497 -1.7489,1.39574 -1.48105,-1.16013 0.50115,-0.70266 -7.47302,-4.0289 -10.86342,-3.55741 -0.91138,0.15611 -0.92983,1.24292 -2.00969,0.21808 -0.29134,-0.15741 -0.47317,-0.33148 -0.9617,-0.33848 z m 4.29793,0.96583 c 2.69111,-0.009 6.51959,1.85661 8.61859,3.24011 l -0.68833,3.74292 2.10788,-1.72082 c 0.5332,-0.92414 5.53534,1.14571 3.8716,7.39903 1.25291,0.56262 2.66041,0.55784 2.19418,7.44244 -3.41587,-8.11687 -8.578,-6.91764 -14.4973,-5.67872 -1.57534,0.41112 -3.67254,1.26887 -3.18327,-0.0858 -0.56681,0.51524 -3.33437,2.97612 -3.18379,0.9033 -0.28376,0.5051 -0.4841,1.03656 -1.29036,1.37666 -0.84063,-0.3827 -1.3924,-0.90967 -1.8929,-1.46244 l -0.17209,0.817 c -1.53299,-0.44903 -2.99406,-0.97448 -4.12946,-1.8495 l 0.12867,0.86041 c -2.382021,-0.52089 -4.451964,-1.51005 -6.495724,-2.53834 -0.104677,0.50389 -0.177931,1.01386 -0.559139,1.46244 -5.797303,-1.16888 -7.722782,2.90924 -9.249047,7.52822 -0.599485,-2.69458 -0.707154,-9.31418 2.839103,-10.5823 -1.097074,-6.60298 0.95677,-6.05417 3.479891,-7.45639 2.782596,-1.22094 4.808012,-2.81434 7.489982,-0.3731 -0.460088,-2.65932 2.323614,-2.8308 5.720584,-2.86133 4.33681,0.18072 6.05526,-0.99979 5.89473,2.38797 0.17652,-1.8654 1.38153,-2.54613 2.9962,-2.55178 z m -16.310635,14.96291 c -0.631643,1.45021 -2.629485,5.05797 -5.742802,8.99067 1.093391,-3.55474 2.622236,-6.67834 5.742802,-8.99067 z m 3.549135,0.30127 c 0.088,1.08048 -2.652565,4.41505 -3.828705,6.96857 7.917735,-0.61883 16.569635,-0.2847 23.875025,0.21549 -7.36774,0.36944 -14.89721,0.30355 -24.089999,0.25787 -0.729787,1.32257 -1.667872,2.50684 -2.56005,3.72122 0.330296,-1.26188 0.552114,-2.52394 1.204577,-3.78582 -0.544895,0.0312 -1.08963,-0.0483 -1.634525,-0.12919 0.553028,-0.0873 1.064593,-0.18275 1.892908,-0.21497 1.638356,-3.38904 0.620275,-2.72639 5.140769,-7.03317 z m 6.62079,4.04162 c 4.39178,0.005 8.79344,0.31567 9.87691,0.66869 -6.13726,0.34469 -12.48975,0.53189 -18.540984,0 1.838244,-0.49068 5.248204,-0.67236 8.664074,-0.66869 z m 4.06952,4.72787 c -0.25546,1.95841 -1.13792,1.97948 -2.17507,4.77542 -1.04255,-2.37261 0.56875,-4.22698 2.17507,-4.77542 z m -8.79378,0.0987 c 1.91051,0.24425 3.74998,2.37252 2.60087,4.76043 -0.82422,-2.94812 -1.85871,-2.6348 -2.60087,-4.76043 z m 15.86931,5.30613 c 4.33127,-1.1e-4 7.8425,3.32811 7.84242,7.43366 7e-5,4.10544 -3.51116,7.43376 -7.84242,7.43365 -4.33095,-1.6e-4 -7.84197,-3.3284 -7.8419,-7.43365 6.8e-4,-0.57871 0.0727,-1.15547 0.21446,-1.71824 l -0.008,0.006 c -2.68889,-1.55719 -5.16087,-1.3949 -7.47706,0 0.14025,0.56098 0.21118,1.13552 0.21135,1.71204 7e-5,4.10525 -3.51083,7.43349 -7.841895,7.43365 -4.33122,1.1e-4 -7.84249,-3.32821 -7.842416,-7.43365 0.0013,-4.08208 3.475111,-7.39947 7.781438,-7.43107 v 5.1e-4 z m -16.66875,1.48415 1.23662,2.16162 c 2.66257,-0.83467 5.34583,-0.99753 8.06566,0 l 1.09709,-2.16162 z m 1.3777,13.22503 c 0.48417,0.58635 -0.20795,0.66872 -0.18294,1.18649 0.2188,1.20846 -0.32739,1.78175 -0.17311,2.03967 0.2121,0.35449 0.91863,0.26023 1.63349,0.85008 0.79096,0.6548 1.42053,1.63322 2.651,1.76475 0.60346,0.0289 1.40588,-0.40461 2.73317,-1.76475 1.14724,-1.11078 1.70052,-0.0183 1.21646,-2.58537 -0.4124,-1.24568 0.24186,-1.9842 0.42581,-0.79117 0.0105,0.5995 0.12049,0.47402 0.27389,0.0305 0.15705,-0.59947 0.89178,0.27986 1.156,0.76068 l 1.82521,2.70732 c 0.59388,-0.0172 0.69005,0.75547 1.03405,1.24696 l 5.71903,9.0041 c 0.49739,0.87193 0.87954,1.75948 -0.061,2.82877 -1.2976,-4.42682 -3.81815,-7.91051 -6.32726,-11.83287 -1.11266,-0.15102 -1.46832,-1.70237 -3.31556,-3.65043 -0.22797,1.1325 1.06049,3.01294 -0.97359,3.2551 -1.18259,0.127 -0.79821,1.94367 -3.86281,1.79473 -2.40302,0.0535 -2.25488,-1.5018 -3.16363,-1.82522 -1.22262,-0.11051 -2.18106,0.0706 -1.79472,-2.98121 -3.392905,4.79569 -7.171672,9.23553 -9.156035,15.33136 -1.268625,-1.65574 1.43312,-5.45046 2.859257,-7.42228 l 4.350118,-6.75308 c 1.52862,-2.10542 1.81323,-2.43597 3.13315,-3.19412 z m -10.373014,2.16008 c 0.726457,0.49944 -1.332443,2.42448 -1.764233,4.13669 0.728923,1.06622 2.449775,1.8983 2.372465,2.58589 -1.073842,-0.15001 -1.88407,-0.97383 -2.707329,-1.76423 -0.460327,1.21856 -1.015716,2.3205 -1.733744,3.22409 0.16527,-1.28376 0.555189,-2.54715 1.034562,-3.80235 -0.942981,-1.18734 -1.94627,-2.33256 -2.616377,-3.71088 1.130534,0.79346 2.041432,1.91686 3.011702,2.95072 0.414412,-1.52293 1.365488,-2.60677 2.402954,-3.61993 z m 13.836364,5.14387 c 0.17653,0.002 0.35513,0.006 0.53589,0.0124 13.01356,0.2452 13.22561,9.16524 13.0948,15.25902 -0.008,1.27981 -0.42822,1.97582 -0.61908,1.88412 -0.63094,-0.36131 -1.26197,-0.7056 -1.89291,-0.94671 0.32139,2.20433 1.03294,4.49095 -1.33377,6.13037 -0.63746,-0.70539 -1.25776,-1.42545 -2.15077,-1.91461 -0.43036,4.20576 -3.57955,3.66332 -6.87038,3.73621 -3.4931,-0.077 -7.01978,0.79136 -7.7773,-3.73621 -2.15778,4.17991 -4.058055,-0.917 -3.140381,-4.43074 -0.756073,0.18871 -1.310631,0.68027 -1.914612,1.09709 -1.816793,-7.99052 0.94695,-17.20272 12.068513,-17.09094 z" /><path
         style="fill:#000000;fill-opacity:1;stroke:none;stroke-width:0.132292;stroke-linecap:round;stroke-linejoin:round;stroke-opacity:1"
         d="m 99.073709,170.37514 7.178811,-1.97721 c 1.02546,-0.36787 2.02652,-0.32096 3.01146,0 l 6.87462,2.00763 c 2.33247,1.73008 -1.45464,6.03043 -2.7681,3.4069 -1.77755,-2.53196 -10.19717,-2.06524 -11.68078,0 -0.89068,1.42387 -1.714317,0.90323 -2.524756,0 -0.849232,-0.86342 -0.366175,-2.18626 -0.09126,-3.43732 z"
         id="path7778"
         sodipodi:nodetypes="ccccccccc" /><path
         style="fill:#000000;fill-opacity:1;stroke:none;stroke-width:0.132292;stroke-linecap:round;stroke-linejoin:round;stroke-opacity:1"
         d="m 110.17654,125.06649 c 3.3579,-2.77397 4.20619,-6.45304 2.616,-11.01157 0.0898,4.19324 -0.8405,7.83208 -2.616,11.01157 z"
         id="path9235"
         sodipodi:nodetypes="ccc" /><path
         style="fill:#000000;fill-opacity:1;stroke:none;stroke-width:0.132292;stroke-linecap:round;stroke-linejoin:round;stroke-opacity:1"
         d="m 113.46175,124.16914 1.88596,-2.31182 0.27377,0.0608 c 1.60509,-2.25433 1.90071,-4.96414 2.22057,-7.66551 -0.0377,2.42439 0.45244,4.55043 -2.09889,8.39556 l -0.42586,-0.12167 z"
         id="path9237"
         sodipodi:nodetypes="ccccccc" /><path
         style="fill:#000000;fill-opacity:1;stroke:none;stroke-width:0.132292;stroke-linecap:round;stroke-linejoin:round;stroke-opacity:1"
         d="m 103.9543,116.4727 0.47321,-0.17208 c 2.17984,2.81359 2.33485,5.56583 2.68865,8.32409 0.44118,-4.24412 0.22455,-8.00882 -2.68865,-9.80823 l -0.43019,-0.0215 -2.38753,-1.78527 z"
         id="path9239"
         sodipodi:nodetypes="ccccccc" /><path
         style="fill:#000000;fill-opacity:1;stroke:none;stroke-width:0.132292;stroke-linecap:round;stroke-linejoin:round;stroke-opacity:1"
         d="m 95.845306,114.32177 c 2.079463,1.83936 4.428604,3.44756 6.151654,5.59241 l -0.086,0.64528 c 1.18906,1.2107 2.05332,2.55132 2.96828,3.87166 -0.60919,-1.43765 -1.20698,-2.88101 -2.15093,-4.15128 l 0.043,-0.58075 c -1.90906,-2.59166 -4.549178,-3.7212 -6.926004,-5.37732 z"
         id="path9241"
         sodipodi:nodetypes="ccccccc" /><path
         style="fill:#000000;fill-opacity:1;stroke:none;stroke-width:0.132292;stroke-linecap:round;stroke-linejoin:round;stroke-opacity:1"
         d="m 92.124203,117.48363 c 1.93671,0.75742 4.00193,0.78662 5.785993,2.40904 v 0.38717 c 1.313583,0.86155 2.191804,1.97188 3.118844,3.05431 -0.67095,-1.02753 -1.095678,-2.10978 -2.236964,-3.0328 l 0.129056,-0.38717 c -2.043544,-2.00952 -4.493573,-1.82402 -6.796929,-2.43055 z"
         id="path9243"
         sodipodi:nodetypes="ccccccc" /></g></g></svg>
