<?xml version="1.0" encoding="UTF-8" standalone="no"?>
<!-- Created with Inkscape (http://www.inkscape.org/) -->

<svg
   width="512"
   height="512"
   viewBox="0 0 135.46666 135.46667"
   version="1.1"
   id="svg5"
   inkscape:version="1.2.2 (732a01da63, 2022-12-09)"
   sodipodi:docname="Catalyst_Icon.svg"
   xmlns:inkscape="http://www.inkscape.org/namespaces/inkscape"
   xmlns:sodipodi="http://sodipodi.sourceforge.net/DTD/sodipodi-0.dtd"
   xmlns="http://www.w3.org/2000/svg"
   xmlns:svg="http://www.w3.org/2000/svg">
  <sodipodi:namedview
     id="namedview7"
     pagecolor="#463135"
     bordercolor="#666666"
     borderopacity="1.0"
     inkscape:pageshadow="2"
     inkscape:pageopacity="0.36862745"
     inkscape:pagecheckerboard="true"
     inkscape:document-units="mm"
     showgrid="false"
     inkscape:zoom="1.5554293"
     inkscape:cx="164.90624"
     inkscape:cy="278.70119"
     inkscape:window-width="2560"
     inkscape:window-height="1361"
     inkscape:window-x="-9"
     inkscape:window-y="-9"
     inkscape:window-maximized="1"
     inkscape:current-layer="layer2"
     units="px"
     height="512px"
     inkscape:showpageshadow="2"
     inkscape:deskcolor="#463135" />
  <defs
     id="defs2" />
  <g
     inkscape:groupmode="layer"
     id="layer2"
     inkscape:label="Layer 2"
     style="display:inline">
    <g
       id="g15567"
       transform="matrix(1.5454494,0,0,1.5454494,-90.932813,-193.85044)"
       style="fill:#000000">
      <path
         id="path870"
         style="fill:#000000;fill-opacity:1;stroke:none;stroke-width:0.999999px;stroke-linecap:butt;stroke-linejoin:miter;stroke-opacity:1"
         d="m 388.96094,477.68164 c -30.94693,3.10439 -46.97132,15.44771 -60.11328,29.57422 -31.81208,-1.24535 -56.3965,31.25302 -60.11133,82.61328 -2.93982,70.1006 16.35918,110.81466 36.96679,149.79883 -2.78864,-39.85172 -24.55462,-78.93128 -7.71484,-113.47461 -1.88886,-25.83659 -1.95799,-36.11191 5.14258,-49.50391 -2.93118,18.03043 -2.56795,32.79944 -0.32031,50.8711 -6.80759,11.2594 -8.40221,27.34349 -5.78711,42.02929 11.72604,42.17723 27.71684,68.36668 46.29101,84.86328 12.9509,9.09544 26.17414,19.10453 36.64453,19.93165 19.42708,-1.36029 29.99357,-11.58245 40.18164,-22.18165 8.35783,-6.63392 16.7164,-15.43926 25.07422,-26.35937 l 4.17969,-13.5 -3.85742,41.78906 13.82227,-23.46679 -15.42969,70.39843 c 33.292,-31.83088 50.85964,-93.80035 50.14648,-132.75976 l 3.21485,39.85937 c 8.04653,-33.71815 14.90734,-62.56598 9.32226,-102.86523 -2.57287,-30.52203 -32.9887,-96.18391 -61.7207,-114.11524 -22.19566,-12.7867 -38.66695,-12.22084 -55.93164,-13.50195 z m 3.78906,10.05274 c 19.96791,0.0418 41.33904,7.14264 60.94727,23.01562 38.30683,40.813 44.19089,103.77981 45.23242,140.24609 -3.43484,-28.53275 -13.26592,-49.07178 -23.86719,-68.64648 25.90998,101.85078 1.32281,136.82622 -15.68359,181.8418 38.35733,-118.37707 12.45826,-236.85548 -81.67774,-263.48633 0,0 -14.70061,-1.76016 -20.53515,4.43164 46.68004,37.77722 70.21799,87.35894 78.12304,136.65039 l -0.004,-0.11133 6.81836,37.05078 c 13.02013,-69.49689 -2.09626,-103.23694 -17.50196,-136.60937 49.53098,31.98164 49.0302,141.44681 30.00391,183.20508 1.23764,-16.82041 0.92563,-34.77729 -2.04492,-51.59766 -4.65838,12.60722 -8.47611,26.67071 -15.48438,34.57812 0.0196,-11.4711 -2.528,-37.55113 -9.11328,-66.45117 -7.6371,-0.77701 -14.79491,-2.98947 -23.25,-1.3125 -2.65795,-0.28218 -5.02519,2.04612 -7.38672,4.43164 -0.1672,-3.04452 -0.57106,-6.51546 0.33985,-11.25 10.17289,-16.50349 16.13837,-16.07143 23.125,-18.69531 -0.7235,-2.32693 -1.47393,-4.64927 -2.25391,-6.96094 -5.23805,1.20813 -9.56945,1.50757 -16.55859,4.4668 -1.94725,0.7626 -3.94716,1.10363 -6.10743,0.16211 -0.90799,-4.63378 2.30858,-7.99249 0.96485,-8.67969 5.13986,-2.71346 10.95289,-4.75647 18.42383,-5.13867 -15.27533,-40.48861 -39.93216,-75.1969 -78.05469,-71.5293 l -0.42774,-1.0332 c 0.11263,0.50253 0.13231,0.87985 -0.0723,0.95312 -39.15539,14.0301 -52.82577,57.59347 -47.80274,97.81641 -9.8387,29.30351 -2.31974,45.02218 0.90821,64.09961 -15.57547,-47.72058 -32.13467,-167.90135 42.96093,-172.52148 l 17.41993,-17.01954 c 12.34583,-7.70144 27.028,-11.93874 42.55859,-11.90624 z m -67.08203,98.70703 a 3.6936701,3.6936701 0 0 1 3.69336,3.69336 3.6936701,3.6936701 0 0 1 -3.69336,3.69335 3.6936701,3.6936701 0 0 1 -3.69336,-3.69335 3.6936701,3.6936701 0 0 1 3.69336,-3.69336 z m 13.63867,0 a 3.6936701,3.6936701 0 0 1 3.69336,3.69336 3.6936701,3.6936701 0 0 1 -3.69336,3.69335 3.6936701,3.6936701 0 0 1 -3.69336,-3.69335 3.6936701,3.6936701 0 0 1 3.69336,-3.69336 z m 1.83789,11.85351 c 0.52644,-0.003 1.0586,0.002 1.5957,0.0156 7.51947,0.18604 16.08823,2.03631 25.48633,6.42578 l 0.0801,3.05469 c 1.05233,1.48478 0.9249,2.54861 0.72266,3.61523 -1.69028,1.82948 -2.46725,1.00264 -3.53516,0.96484 -37.29976,-13.27789 -42.81866,-5.39509 -53.84375,-1.76757 4.36908,-5.65193 14.18877,-11.75607 27.93164,-12.27344 0.51536,-0.0194 1.03607,-0.0318 1.5625,-0.0352 z m -3.82422,16.43555 c 0.21045,10e-4 0.42153,0.005 0.63281,0.01 12.9149,0.31354 27.51102,7.80654 30.05079,30.34571 -3.04098,-3.15013 -7.07754,-5.563 -10.94727,-5.15039 -12.89285,1.51634 -24.87488,2.13083 -30.13672,0.40234 -10.70744,-5.14371 -15.07502,-13.1767 -22.3418,-19.84961 l 6.58985,1.44531 -0.5625,-3.69531 5.94726,2.08789 -2.41211,-4.01758 6.875,2.7168 c 3.74776,-2.56166 9.78094,-4.33585 16.30469,-4.29492 z m 86.11524,9.24609 1.00195,3.65235 c -0.32696,-1.21593 -0.66036,-2.43415 -1.00195,-3.65235 z m -97.9375,22.8125 3.06836,0.11524 -0.91016,2.83984 c 4.22213,1.84838 9.38168,2.01244 15.11719,1.13672 -17.46536,18.48484 -10.04701,37.91567 -4.32032,57.28125 -4.31851,-12.1979 -6.25427,-10.10677 -13.06835,-37.27734 -0.52327,-6.78452 1.88031,-11.81267 4.31835,-16.82032 -2.1356,-0.57808 -3.81577,-0.77205 -7.04687,-2.27343 l 2.95508,-2.95508 z m 74.89648,32.27735 c 0.80848,2.86529 2.2837,5.79703 1.70313,8.52343 -0.97535,0.93767 -1.39449,2.06143 -3.18164,2.72852 V 692.25 c -0.75553,0.50536 -1.36593,-0.1082 -3.01172,0.11328 l 0.2832,-2.61328 c -3.25497,-0.58995 -5.18601,-0.46783 -6.47656,0 l 0.11328,1.70508 c -2.45715,2.24402 -5.5255,4.16709 -8.29688,4.77344 -0.0729,0.0673 -4.7093,-2.04596 -7.72851,-5 l -0.33985,-1.36524 c -1.54167,-0.73614 -2.85104,-0.65694 -4.09179,-0.33984 -1.25562,0.87133 -1.86574,1.97009 -0.85352,2.95508 l -3.23828,-0.17188 c 0.98879,-0.42573 0.17336,-1.41731 0,-1.98828 -4.22446,-3.09547 -1.91977,-6.8094 -1.46289,-11.12891 0.79177,3.21615 -0.52366,5.70639 2.25781,8.62891 l 2.8418,-3.18164 c 5.01179,0.11414 8.2783,2.90987 11.70703,5.45508 l -0.45508,2.04492 c 1.38255,1.16107 2.32667,0.86191 3.06836,-0.11328 l -0.45508,-2.04688 c 4.36415,-4.00033 7.82165,-5.27774 11.13868,-6.13672 2.50658,0.60798 4.15797,1.70424 4.54492,3.52344 2.09291,-2.43114 1.67673,-5.44201 1.93359,-8.29687 z m -10.4707,28.45507 c 10.45965,1.95882 13.7331,5.17646 22.34179,8.03711 -7.29734,5.96202 -12.81217,12.14418 -28.76953,13.98243 -27.37938,-3.60533 -14.64801,-6.34066 -32.14648,-14.30469 6.93432,-0.42747 11.50255,-5.13375 22.3418,-7.39258 3.18326,1.48403 7.30038,3.76784 8.51757,2.89258 4.39476,-0.62117 5.38991,-2.17971 7.71485,-3.21485 z m -8.45899,32.52149 c 0.31822,-0.002 0.63738,0.005 0.95704,0.0215 5.11436,0.26214 10.40467,2.86578 15.58593,7.19336 -14.94175,-5.21601 -19.19343,-4.85969 -30.11914,-0.34179 4.1988,-4.72052 8.80289,-6.84226 13.57617,-6.87305 z"
         transform="scale(0.26458333)" />
      <path
         style="fill:#000000;fill-opacity:1;stroke:none;stroke-width:0.264583px;stroke-linecap:butt;stroke-linejoin:miter;stroke-opacity:1"
         d="m 90.932472,136.9099 c 0.218589,-0.59736 0.480702,-1.17295 1.172742,-1.53358 3.593974,-0.78746 6.652741,4.48232 7.848335,6.07419 -2.68042,-1.48158 -4.536313,-3.6644 -9.021077,-4.54061 z"
         id="path19774"
         sodipodi:nodetypes="cccc" />
      <path
         style="fill:#000000;fill-opacity:1;stroke:none;stroke-width:0.065;stroke-linecap:butt;stroke-linejoin:miter;stroke-miterlimit:4;stroke-dasharray:none;stroke-opacity:1"
         d="m 111.89145,165.20602 0.54126,2.82661 c -1.35605,0.38834 -2.89127,-0.70516 -2.64619,-1.98465 0.47047,-0.61156 1.38637,-0.69662 2.10493,-0.84196 z"
         id="path20516"
         sodipodi:nodetypes="cccc" />
      <path
         style="fill:#000000;fill-opacity:1;stroke:none;stroke-width:0.065;stroke-linecap:butt;stroke-linejoin:miter;stroke-miterlimit:4;stroke-dasharray:none;stroke-opacity:1"
         d="m 87.654814,165.83749 c 1.240957,-1.06964 3.551611,-0.80618 4.48047,0.18043 l 0.15035,0.66154 c -0.508426,0.86894 -1.185551,1.31613 -2.014707,1.38324 -0.70765,0.20572 -3.019,-0.53418 -2.616113,-2.22521 z"
         id="path21254"
         sodipodi:nodetypes="ccccc" />
      <path
         style="display:inline;fill:#000000;fill-opacity:1;stroke:none;stroke-width:0.264583px;stroke-linecap:butt;stroke-linejoin:miter;stroke-opacity:1"
         d="m 99.170103,131.19201 c 1.831087,-1.2175 5.198727,-1.37147 9.865977,0.46778 5.26224,2.25737 6.51936,6.67117 7.7397,8.84536 -6.9172,-6.89526 -11.69089,-8.11899 -17.605677,-9.31314 z"
         id="path19340"
         sodipodi:nodetypes="cccc" />
    </g>
  </g>
  <g
     inkscape:groupmode="layer"
     id="layer3"
     inkscape:label="Layer 3" />
</svg>
