<?xml version="1.0" encoding="UTF-8" standalone="no"?>
<svg
   version="1.1"
   id="Layer_4_1_"
   x="0px"
   y="0px"
   viewBox="0 0 512 512"
   xml:space="preserve"
   sodipodi:docname="Caustic_Icon.svg"
   inkscape:version="1.2.2 (732a01da63, 2022-12-09)"
   width="512"
   height="512"
   xmlns:inkscape="http://www.inkscape.org/namespaces/inkscape"
   xmlns:sodipodi="http://sodipodi.sourceforge.net/DTD/sodipodi-0.dtd"
   xmlns="http://www.w3.org/2000/svg"
   xmlns:svg="http://www.w3.org/2000/svg"
   xmlns:rdf="http://www.w3.org/1999/02/22-rdf-syntax-ns#"
   xmlns:cc="http://creativecommons.org/ns#"
   xmlns:dc="http://purl.org/dc/elements/1.1/"><metadata
   id="metadata57"><rdf:RDF><cc:Work
       rdf:about=""><dc:format>image/svg+xml</dc:format><dc:type
         rdf:resource="http://purl.org/dc/dcmitype/StillImage" /></cc:Work></rdf:RDF></metadata><defs
   id="defs55" /><sodipodi:namedview
   pagecolor="#ffffff"
   bordercolor="#666666"
   borderopacity="1"
   objecttolerance="10"
   gridtolerance="10"
   guidetolerance="10"
   inkscape:pageopacity="0"
   inkscape:pageshadow="2"
   inkscape:window-width="2560"
   inkscape:window-height="1361"
   id="namedview53"
   showgrid="false"
   inkscape:zoom="0.28293919"
   inkscape:cx="104.26269"
   inkscape:cy="425.88657"
   inkscape:window-x="-9"
   inkscape:window-y="-9"
   inkscape:window-maximized="1"
   inkscape:current-layer="Layer_4_1_"
   inkscape:pagecheckerboard="0"
   inkscape:showpageshadow="2"
   inkscape:deskcolor="#d1d1d1" />
<style
   type="text/css"
   id="style2">
	.st0{fill:#241C1C;}
</style>























<g
   id="g906"
   style="fill:#000000;fill-opacity:1"
   transform="matrix(13.406593,0,0,13.406593,7.9780295,7.9780295)"><path
     class="st0"
     d="m 18.1,30.9 -1.9,1 C 16,32 15.9,32.1 15.9,32.3 V 35 c 0,0.3 0.1,0.6 0.4,0.8 l 1.1,0.9 h 0.7 z"
     id="path4"
     style="fill:#000000;fill-opacity:1" /><path
     class="st0"
     d="m 18.9,30.9 1.9,1 c 0.2,0.1 0.3,0.2 0.3,0.4 V 35 c 0,0.3 -0.1,0.6 -0.4,0.8 l -1.1,0.9 h -0.7 z"
     id="path6"
     style="fill:#000000;fill-opacity:1" /><path
     class="st0"
     d="m 18.1,30.1 c 0,0 -2.1,0.4 -2.9,1.2 L 13.6,27.2 15,23.9 c 0.1,-0.3 0.4,-0.6 0.7,-0.8 0.5,-0.3 1.4,-0.7 2.4,-0.7 z"
     id="path8"
     style="fill:#000000;fill-opacity:1" /><path
     class="st0"
     d="m 14.6,31.6 -1.7,-4 c 0,0 -1.2,-0.9 -1.5,-0.9 -0.3,0 -1.9,0.6 -1.9,1.3 0,0.7 2.5,6.2 2.5,6.2 0,0 0.3,0.3 0.6,0.3 0.3,0 1.6,-1.2 1.6,-1.2 0,0 0.4,-0.6 0.4,-1.7 z"
     id="path10"
     style="fill:#000000;fill-opacity:1" /><path
     class="st0"
     d="m 18.9,30.1 c 0,0 2.1,0.4 2.9,1.2 L 23.4,27.2 22,23.9 c -0.1,-0.3 -0.4,-0.6 -0.7,-0.8 -0.5,-0.3 -1.4,-0.7 -2.4,-0.7 z"
     id="path12"
     style="fill:#000000;fill-opacity:1" /><path
     class="st0"
     d="m 22.4,31.6 1.7,-4 c 0,0 1.2,-0.9 1.5,-0.9 0.3,0 1.9,0.6 1.9,1.3 0,0.7 -2.5,6.2 -2.5,6.2 0,0 -0.3,0.3 -0.6,0.3 -0.3,0 -1.6,-1.2 -1.6,-1.2 0,0 -0.4,-0.6 -0.4,-1.7 z"
     id="path14"
     style="fill:#000000;fill-opacity:1" /><path
     class="st0"
     d="m 10.7,13.8 c 0.5,0.5 7.3,0.9 7.3,0.9 v -1.3 c 0,0 -7,-0.5 -7.6,-0.5 -0.5,0 -2.5,1.7 -3,2.1 -0.1,0.1 -0.1,0.1 -0.1,0.2 l -0.8,6.5 c 0,0.2 0.1,0.4 0.2,0.5 l 3.2,2 c 0.3,0.2 0.5,0.2 0.8,0.2 0.9,0 2.8,-0.2 3.4,-0.7 0.7,-0.7 1.9,-1.5 4,-1.5 v -0.9 c 0,0 -0.3,0 -1.3,0 -0.8,0 -3.2,1.2 -4,1.6 C 12.6,23 12.4,23 12.3,23 L 8.2,21.8 8.5,16 c 0,-0.2 0.1,-0.4 0.2,-0.5 0.4,-0.7 1.6,-2.1 2,-1.7 z"
     id="path16"
     style="fill:#000000;fill-opacity:1" /><path
     class="st0"
     d="m 16.5,18.9 c 0,0 -2.9,-2.5 -4.1,-2.5 -1.2,0 -2,-0.3 -2,-0.3 0,0 -0.7,0.6 0,0.6 0.7,0 2.1,0.8 2.1,0.8 0,0 0.1,0.7 -0.3,0.3 -0.4,-0.4 -1.1,-0.2 -1.1,-0.2 0,0 -0.3,0.1 0.1,0.5 0.4,0.4 1.4,1.4 1.8,1.4 0.3,0 1.7,-0.5 2.1,-0.5 0.4,0 1.3,0.6 1.5,0.6 0.2,0 0.9,-0.5 0.9,-0.8 0,-0.2 -0.5,-0.4 -1,0.1 z"
     id="path18"
     style="fill:#000000;fill-opacity:1" /><path
     id="polygon20"
     class="st0"
     d="M 5.1,31 9,26.6 v -1.3 l -3.5,2.9 z"
     style="fill:#000000;fill-opacity:1" /><path
     id="polygon22"
     class="st0"
     d="M 8.7,25.1 5.8,26.9 3.2,25.8 6.3,23.1 Z"
     style="fill:#000000;fill-opacity:1" /><path
     class="st0"
     d="M 26.3,13.8 C 25.8,14.3 19,14.7 19,14.7 v -1.3 c 0,0 7,-0.5 7.6,-0.5 0.5,0 2.5,1.7 3,2.1 0.1,0.1 0.1,0.1 0.1,0.2 l 0.8,6.5 c 0,0.2 -0.1,0.4 -0.2,0.5 l -3.2,2 c -0.3,0.2 -0.5,0.2 -0.8,0.2 -0.9,0 -2.8,-0.2 -3.4,-0.7 -0.7,-0.7 -1.9,-1.5 -4,-1.5 v -0.9 c 0,0 0.3,0 1.3,0 0.8,0 3.2,1.2 4,1.6 0.2,0.1 0.4,0.1 0.5,0.1 L 28.8,21.8 28.5,16 c 0,-0.2 -0.1,-0.4 -0.2,-0.5 -0.4,-0.7 -1.6,-2.1 -2,-1.7 z"
     id="path24"
     style="fill:#000000;fill-opacity:1" /><path
     class="st0"
     d="m 20.5,18.9 c 0,0 2.9,-2.5 4.1,-2.5 1.2,0 2,-0.3 2,-0.3 0,0 0.7,0.6 0,0.6 -0.7,0 -2.1,0.8 -2.1,0.8 0,0 -0.1,0.7 0.3,0.3 0.4,-0.4 1.1,-0.2 1.1,-0.2 0,0 0.3,0.1 -0.1,0.5 -0.4,0.4 -1.4,1.4 -1.8,1.4 -0.4,0 -1.6,-0.5 -2,-0.5 -0.4,0 -1.3,0.6 -1.5,0.6 -0.2,0 -0.9,-0.5 -0.9,-0.8 -0.1,-0.2 0.4,-0.4 0.9,0.1 z"
     id="path26"
     style="fill:#000000;fill-opacity:1" /><path
     id="polygon28"
     class="st0"
     d="M 31.9,31 28,26.6 v -1.3 l 3.5,2.9 z"
     style="fill:#000000;fill-opacity:1" /><path
     id="polygon30"
     class="st0"
     d="m 28.3,25.1 2.9,1.8 2.6,-1.1 -3.1,-2.7 z"
     style="fill:#000000;fill-opacity:1" /><path
     class="st0"
     d="M 18.1,8.8 H 17.7 L 16.8,7.7 13.7,7.4 12.5,2.4 c 0,0 5.2,-1.6 5.7,-2.1 v 8.5 z"
     id="path32"
     style="fill:#000000;fill-opacity:1" /><path
     class="st0"
     d="m 13.2,7.8 -1.8,-5 c 0,0 -3.1,0.1 -3.4,-0.3 v 4.3 l -0.6,0.4 2.3,4.2 c 0.1,0 1.5,-3.6 3.5,-3.6 z"
     id="path34"
     style="fill:#000000;fill-opacity:1" /><path
     class="st0"
     d="M 9.6,12.1 6.8,7.3 c 0,0 -1.7,1 -3.3,2.5 l 1.9,2.3 -1.7,1 2.5,2.5 0.1,-1.2 z"
     id="path36"
     style="fill:#000000;fill-opacity:1" /><path
     id="polygon38"
     class="st0"
     d="M 6.1,16 5,15.2 l -0.3,1.5 1.2,1 z"
     style="fill:#000000;fill-opacity:1" /><path
     class="st0"
     d="M 5.8,18.4 4.6,17.3 c 0,0 -0.2,1.8 -0.6,2.2 0,0 1.3,-0.3 1.7,-0.3 z"
     id="path40"
     style="fill:#000000;fill-opacity:1" /><path
     class="st0"
     d="m 18.9,8.8 h 0.4 l 0.9,-1.1 3.1,-0.3 1.2,-5 c 0,0 -5.2,-1.6 -5.7,-2.1 v 8.5 z"
     id="path42"
     style="fill:#000000;fill-opacity:1" /><path
     class="st0"
     d="m 23.8,7.8 1.8,-5 c 0,0 3.1,0.1 3.4,-0.3 v 4.3 l 0.5,0.3 -2.3,4.2 c 0,0.1 -1.4,-3.5 -3.4,-3.5 z"
     id="path44"
     style="fill:#000000;fill-opacity:1" /><path
     class="st0"
     d="m 27.4,12.1 2.8,-4.7 c 0,0 1.7,1 3.3,2.5 l -1.9,2.3 1.7,1 -2.5,2.5 -0.1,-1.2 z"
     id="path46"
     style="fill:#000000;fill-opacity:1" /><path
     id="polygon48"
     class="st0"
     d="m 30.9,16 1.1,-0.8 0.3,1.5 -1.2,1 z"
     style="fill:#000000;fill-opacity:1" /><path
     class="st0"
     d="m 31.2,18.4 1.2,-1.1 c 0,0 0.2,1.8 0.6,2.2 0,0 -1.3,-0.3 -1.7,-0.3 z"
     id="path50"
     style="fill:#000000;fill-opacity:1" /></g>
</svg>
