<?xml version="1.0" encoding="UTF-8" standalone="no"?>
<!-- Created with Inkscape (http://www.inkscape.org/) -->

<svg
   width="512"
   height="512"
   viewBox="0 0 135.46666 135.46667"
   version="1.1"
   id="svg5"
   inkscape:version="1.3.2 (091e20e, 2023-11-25, custom)"
   sodipodi:docname="Conduit_Icon.svg"
   xml:space="preserve"
   xmlns:inkscape="http://www.inkscape.org/namespaces/inkscape"
   xmlns:sodipodi="http://sodipodi.sourceforge.net/DTD/sodipodi-0.dtd"
   xmlns="http://www.w3.org/2000/svg"
   xmlns:svg="http://www.w3.org/2000/svg"
   xmlns:rdf="http://www.w3.org/1999/02/22-rdf-syntax-ns#"
   xmlns:cc="http://creativecommons.org/ns#"
   xmlns:dc="http://purl.org/dc/elements/1.1/"><title
     id="title4610">Conduit</title><sodipodi:namedview
     id="namedview7"
     pagecolor="#ffffff"
     bordercolor="#666666"
     borderopacity="1.0"
     inkscape:showpageshadow="2"
     inkscape:pageopacity="0.0"
     inkscape:pagecheckerboard="true"
     inkscape:deskcolor="#000000"
     inkscape:document-units="px"
     showgrid="false"
     inkscape:zoom="2.8284271"
     inkscape:cx="323.67813"
     inkscape:cy="299.28294"
     inkscape:window-width="3840"
     inkscape:window-height="2107"
     inkscape:window-x="-8"
     inkscape:window-y="-8"
     inkscape:window-maximized="1"
     inkscape:current-layer="layer2" /><defs
     id="defs2"><pattern
       id="EMFhbasepattern"
       patternUnits="userSpaceOnUse"
       width="6"
       height="6"
       x="0"
       y="0" /><filter
       inkscape:label="Black Light"
       inkscape:menu="Color"
       inkscape:menu-tooltip="Light areas turn to black"
       style="color-interpolation-filters:sRGB;"
       id="filter382"
       x="0"
       y="0"
       width="1"
       height="1"><feColorMatrix
         type="luminanceToAlpha"
         result="result2"
         id="feColorMatrix374" /><feComposite
         in2="SourceGraphic"
         operator="arithmetic"
         in="result2"
         k3="2"
         result="result4"
         id="feComposite376" /><feBlend
         in="result4"
         mode="multiply"
         result="result3"
         in2="result2"
         id="feBlend378" /><feComposite
         in2="SourceGraphic"
         operator="in"
         in="result3"
         id="feComposite380" /></filter></defs><g
     inkscape:groupmode="layer"
     id="layer2"
     inkscape:label="Invertable"
     style="display:inline"><path
       id="path1046"
       style="fill:#000000;fill-opacity:1;stroke:none;stroke-width:0.168354px;stroke-linecap:butt;stroke-linejoin:miter;stroke-opacity:1"
       inkscape:label="Conduit"
       d="M 78.40865,0.33279622 C 75.070517,0.2851492 71.494302,0.78363475 67.733849,2.0670573 64.329324,0.86841642 60.750904,0.36222797 57.153617,0.3446818 55.629569,0.36174378 54.117953,0.49163356 52.623144,0.72812092 30.172225,4.2799961 11.641024,31.836671 14.09423,62.950162 c -2.521604,1.737624 -2.962607,3.895494 -3.072164,5.277714 -0.324447,4.094993 2.153794,9.545956 3.964616,13.055534 -4.311661,13.368325 -7.7947126,30.81717 -2.318205,43.0258 1.201182,2.67775 2.631818,4.64259 3.974435,6.08128 1.237387,1.32599 2.235319,2.03302 2.537829,2.3673 0.295005,-0.88113 0.602323,-1.70464 0.924492,-2.47685 1.020132,-2.44522 2.282681,-4.57821 3.840075,-6.05235 0.853095,1.41509 1.558739,2.93546 2.624646,4.21111 0.404396,0.46907 0.758292,0.73645 1.065568,0.86093 0.08925,0.0361 0.178564,0.0624 0.267684,0.077 0.670223,-2.66451 3.458988,-7.44135 10.654647,-10.05933 7.299664,7.33713 13.242668,11.70012 19.312516,14.97893 0.518699,0.28019 1.045053,0.55605 1.579748,0.82682 h 8.370032 8.196399 c 7.850889,-3.97577 14.214522,-9.09374 20.892264,-15.80575 0.442102,0.16085 0.867643,0.33011 1.277442,0.50643 h 5.16e-4 c 1.22926,0.52893 2.31528,1.12281 3.27164,1.75596 3.8256,2.53274 5.57516,5.69039 6.10505,7.79694 0.4456,-0.0729 0.89433,-0.42875 1.33325,-0.93793 1.05531,-1.28234 1.78266,-2.78911 2.62465,-4.21111 2.72573,2.5802 4.24978,6.99221 4.76456,8.52971 0.44238,-0.48878 2.28883,-1.72396 4.22455,-4.4328 8.72755,-12.21356 4.56011,-32.808461 -0.0305,-47.04209 5.93243,-11.497681 4.05765,-15.537673 1.83348,-17.586524 -0.30328,-0.279466 -0.6209,-0.526335 -0.93999,-0.746207 0.0409,-0.518713 0.0762,-1.036243 0.10542,-1.552877 C 122.43916,44.465711 117.12764,31.63652 113.48403,24.966434 109.93385,18.347217 105.42096,13.163494 100.58301,9.059912 96.296293,5.5341123 88.423048,0.47573729 78.40865,0.33279622 Z M 58.644482,4.0467814 c 4.09357,0.072511 7.105777,1.2808331 9.083166,2.4535969 0.0017,5.885e-4 3.4e-4,0.00471 0.0026,0.00465 v 5.168e-4 c 6.99e-4,-6.147e-4 0.002,-3.386e-4 0.0031,-5.168e-4 9.69e-4,1.871e-4 0.0025,-5.33e-5 0.0031,5.168e-4 v -5.168e-4 c 0.0023,1.71e-5 9.53e-4,-0.00408 0.0026,-0.00465 0.06291,-0.037313 0.126468,-0.071649 0.189652,-0.1080037 C 75.029954,2.2980142 83.177081,4.4772661 87.046882,5.946407 88.616063,6.5278992 90.117164,7.2715352 91.551517,8.1307698 90.314446,8.0158139 89.145299,7.9499491 88.040103,7.930782 81.131924,7.8110336 74.871522,9.4202839 71.416829,15.448152 c -0.509473,0.888913 -0.876658,1.72884 -1.114661,2.324923 13.023768,-12.2947408 24.174802,-7.039423 31.834232,-1.373559 0.84637,0.637067 1.70859,1.325565 2.7559,2.191597 -3.73981,-0.793938 -6.933354,-1.221489 -9.687776,-1.39268 -5.742044,-0.356948 -12.89027,0.166236 -18.534786,4.672583 -0.449515,0.35887 -1.259219,1.033597 -2.200899,2.032951 9.463573,-5.492433 25.881541,-6.920611 33.103921,0.765845 15.51799,18.164008 9.52812,46.190892 7.86464,57.200642 -0.22803,1.509701 -0.38557,2.756374 -0.37414,3.579626 l -0.447,9.99939 -0.94981,-1.147217 -1.51981,-6.114355 c 0.33989,-1.75354 -0.24537,-4.259664 0.0367,-6.530351 0.31734,-1.239646 0.60638,-2.560387 0.86248,-3.946012 0.63608,-3.441233 1.07397,-7.323531 1.23042,-11.364681 0.24237,-6.267396 -0.0184,-18.493778 -4.69584,-28.335221 -1.37217,-2.886854 -3.37286,-6.052448 -6.23011,-8.542631 h -5.2e-4 c -2.56396,-2.296523 -7.939961,-5.654676 -16.708538,-4.523236 3.864469,0.836109 6.715163,1.876733 9.424231,3.165698 h 5.17e-4 c 15.59675,7.632463 16.42842,24.067733 15.3665,37.993546 -1.90346,-4.847023 -2.48226,-10.128049 -3.92689,-15.008903 -0.80141,-2.707777 -1.84625,-5.219546 -3.4401,-7.526672 -0.6343,-0.918152 -1.33408,-1.773059 -2.10426,-2.573486 -1.06322,-1.10494 -2.307758,-2.155179 -3.776517,-3.138827 h -5.16e-4 c -0.734428,-0.491845 -1.524752,-0.967259 -2.376599,-1.424202 0.170443,-0.08404 0.275688,-0.204574 0.464571,-0.275436 0.146606,-0.05494 0.397465,-0.10271 0.93431,0.03772 l 2.827221,1.517737 C 99.885982,37.496425 99.731523,37.2818 99.568598,37.069571 97.783348,34.744084 94.112552,31.342463 82.474551,30.27257 l 5.420858,-0.193786 c -4.144781,-1.6769 -8.758885,-1.642933 -13.158886,-1.889291 -3.697571,-1.386163 -5.040764,-3.321681 -6.989238,-5.115966 v -0.01085 h -0.0041 -0.01964 -0.0041 v 0.01085 c -2.240787,1.989992 -4.447763,4.088177 -6.989238,5.115966 -4.409313,0.316056 -9.001343,0.183898 -13.158886,1.889291 l 5.420858,0.193786 c -11.989095,1.102256 -15.460053,4.668532 -17.094047,6.797001 -0.162925,0.212228 -0.317364,0.426855 -0.465088,0.643372 l 2.827217,-1.517737 c 0.56214,-0.147 0.858196,-0.125153 1.173572,0.09509 0.0054,0 0.112077,0.08679 0.225309,0.142627 -8.45153,4.533524 -10.898683,10.958508 -12.482442,17.646984 -0.829579,3.50351 -0.504712,2.453967 -1.353922,6.056478 -0.616676,2.615455 -1.178733,4.415806 -1.788521,5.968628 -0.04636,-0.60791 -0.07228,-1.214305 -0.125057,-1.815393 -2.57953,-29.377683 11.654059,-36.477161 24.916308,-39.343851 -4.112716,-0.530671 -8.44014,-0.22753 -12.439034,1.69602 -15.257274,7.338862 -15.485432,32.246802 -15.197005,39.70507 0.126928,3.28236 0.559761,9.321636 2.092896,15.310693 0.278963,2.239017 -0.306005,4.756012 0.03772,6.530351 l -1.519804,6.114355 -0.950329,1.147217 -0.446484,-9.99939 c 0.01077,-0.77545 -0.127089,-1.952485 -0.378789,-3.614249 -0.697786,-4.318805 -1.395271,-8.637635 -1.882572,-12.986288 -2.407276,-22.091549 2.590334,-33.725728 6.749459,-40.151037 3.582705,-5.53482 5.91351,-6.687547 8.341609,-7.653796 7.11532,-2.831529 17.336931,-1.870343 24.700818,1.319816 1.06733,0.462386 2.093046,0.976282 3.063379,1.539441 -0.719669,-0.763778 -1.651438,-1.64604 -2.802413,-2.495455 -3.400093,-2.50924 -10.092331,-5.924519 -24.636222,-3.395141 -0.958689,0.166728 -1.963315,0.360988 -2.984314,0.577742 5.859397,-4.845183 15.113853,-11.5438524 26.30072,-6.551538 2.153593,0.987063 4.599177,2.348138 8.289416,5.7335 C 64.539671,16.20807 63.711424,14.688466 62.608643,13.36043 61.174126,11.632908 57.065577,6.9086571 43.914632,8.1307698 46.365416,6.6110478 52.122206,3.9311816 58.644482,4.0467814 Z M 37.596154,53.352298 c 5.902075,0.27987 10.799974,1.468921 14.857491,3.072164 l 4.082438,5.21932 c -0.04578,0.350477 -0.24418,0.393609 -0.463021,0.420646 -1.062303,-0.362771 -2.123193,-0.747721 -3.184301,-1.129647 -7.198094,-2.590811 -14.855416,-5.19169 -22.868372,1.33997 -0.531143,0.06146 -0.649736,-0.171108 -0.631486,-0.504879 0.343703,-0.627882 0.647442,-1.289003 0.939478,-1.866036 0.894808,-1.768022 2.111909,-3.676794 6.384106,-6.215124 l 0.168466,0.421163 1.346687,0.926041 -0.547253,-1.304829 z m 60.27384,0 -0.08423,0.378789 -0.546736,1.304829 1.346687,-0.926041 0.168466,-0.421163 c 1.057306,0.628197 1.926199,1.215722 2.649969,1.771985 h 5.1e-4 c 3.13613,2.410388 3.53997,4.240053 4.67258,6.309175 0.018,0.328221 -0.0916,0.566752 -0.63096,0.504879 -3.57024,-2.910235 -6.6324,-3.662127 -8.383469,-3.936711 -0.54786,-0.0859 -1.09382,-0.141769 -1.638143,-0.171049 -2.018222,-0.108562 -4.128863,0.143353 -6.464721,0.722954 -3.205261,0.795308 -6.379941,2.086168 -9.566858,3.174483 -0.206266,-0.02549 -0.416566,-0.06498 -0.463021,-0.420646 l 4.082955,-5.21932 c 4.61055,-1.821763 9.573033,-2.821622 14.856974,-3.072164 z m -42.933296,3.998206 c 0.541915,0.214464 1.119432,0.321974 1.683618,0.463021 l 3.91449,5.135087 c 0.08926,0.320115 0.124413,0.685964 -0.08423,0.883671 l -2.441195,-1.17874 -3.451469,-4.79764 c 0.0034,-0.282329 0.166434,-0.346127 0.378789,-0.505395 z m 25.592753,0 c 0.253062,0.149769 0.334012,0.234561 0.378788,0.505395 l -3.450952,4.79764 -2.441195,1.17874 c -0.127278,-0.114837 -0.145622,-0.260619 -0.16174,-0.422201 0.0063,-0.150706 0.05273,-0.307691 0.07751,-0.46147 l 3.91449,-5.135087 c 0.565912,-0.14267 1.136489,-0.258056 1.683102,-0.463021 z m -37.686072,6.433199 0.327112,0.714168 c 5.832473,-0.03548 8.596807,1.478677 10.426237,3.802869 1.239699,1.600072 2.055699,3.472337 2.975529,5.261694 0.365852,0.706269 0.76012,1.42806 1.211295,2.155424 -0.675312,-0.190357 -1.20777,-0.367787 -1.837097,-0.553971 -0.314663,-0.09309 -0.653813,-0.188128 -1.046964,-0.288355 -1.813454,-0.608542 -3.66036,-0.393986 -5.544881,-0.333313 -1.899466,0.05582 -4.108955,0.0411 -6.094719,-0.430981 -0.93218,-0.273083 -1.694876,-0.556083 -2.358512,-0.857312 -2.019287,-0.916572 -3.172236,-2.043931 -3.233394,-2.08101 -0.665417,-0.40336 -1.660287,-0.295259 -2.711463,-0.127641 0.05124,-0.133445 0.122584,-0.255749 0.207739,-0.371554 0.255475,-0.347415 0.633542,-0.633566 0.952914,-0.967382 -0.327826,-0.03257 -0.623036,-0.284189 -0.911572,-0.448035 -0.569849,-0.327146 -2.116914,-1.22885 -2.362125,-2.468583 l 2.678389,-0.267684 c -0.215806,-0.260112 -0.473825,-0.512461 -0.578776,-0.737423 -0.104037,-0.222981 -0.02348,-0.356715 0.105425,-0.451135 0.35202,-0.235201 0.569727,0.07328 0.953664,0.157491 l 0.442633,0.286926 1.844849,-0.1788 0.476457,-1.190625 0.892968,0.297656 0.38654,0.387057 1.517737,-0.118856 0.416512,-1.011825 z m 49.779907,0 0.862996,0.1788 0.416512,1.011825 1.518254,0.118856 0.38654,-0.387057 0.892968,-0.297656 0.47594,1.190625 1.845366,0.1788 0.208256,-0.357084 0.952392,-0.208773 c 0.79513,0.299434 0.19338,0.789776 -0.238224,1.309998 l 2.678394,0.267684 c -0.34375,1.737423 -3.117792,2.752926 -3.037545,2.899048 -0.02379,0.0027 -0.161763,0.01208 -0.236162,0.01757 0.425821,0.445087 0.956207,0.805161 1.161167,1.338936 -0.776321,-0.123804 -1.559294,-0.225949 -2.189528,-0.07855 -0.458026,0.107191 -0.746231,0.327614 -0.93586,0.584977 -1.412205,1.034963 -2.692175,1.831313 -5.177978,2.559534 -3.980994,0.946408 -8.848889,0.05505 -10.26759,0.445967 -2.126529,0.451249 -2.905448,0.77994 -4.256071,1.160653 0.225587,-0.363681 0.43703,-0.726047 0.637687,-1.085722 0.802636,-1.438695 1.434858,-2.834955 2.126485,-4.108276 0.172908,-0.31833 0.349334,-0.629026 0.533301,-0.930693 1.839627,-3.016664 4.411689,-5.137086 11.315071,-5.095296 z m -2.762105,2.556433 c -3.504653,0.315126 -4.676628,0.319134 -7.259506,3.497461 1.849746,-2.205058 4.384752,-3.161536 7.259506,-3.497461 z m -44.254663,5.17e-4 c 2.874334,0.336029 5.408428,1.292144 7.257955,3.496944 -2.58254,-3.177912 -3.754371,-3.181942 -7.257955,-3.496944 z m -1.168404,0.4439 c -1.740065,0.03014 -3.721422,0.670022 -6.059062,2.207617 -0.292952,0.55088 -0.07615,0.591823 0,0.773597 6.151389,4.814809 10.597742,2.283968 15.89257,3.244246 -1.48293,-1.48455 -2.921304,-3.070989 -4.510319,-4.271057 0.07016,0.238488 0.105772,0.483442 0.105937,0.729154 3e-6,1.676574 -1.612455,3.035523 -3.601331,3.035474 -1.988876,5e-5 -3.601333,-1.3589 -3.60133,-3.035474 6.6e-4,-1.12552 0.739868,-2.158427 1.920813,-2.683557 -0.0491,-1.23e-4 -0.09778,-8.71e-4 -0.147278,0 z m 46.442643,0 c 1.180946,0.525129 1.920151,1.558036 1.920812,2.683557 3e-6,1.676574 -1.611937,3.035523 -3.600813,3.035474 -1.988878,5.2e-5 -3.601334,-1.358898 -3.601331,-3.035474 1.64e-4,-0.245712 0.03578,-0.490666 0.105937,-0.729154 -1.589014,1.200068 -3.027396,2.786507 -4.510319,4.271057 5.294827,-0.960278 9.740663,1.570563 15.892053,-3.244246 0.07615,-0.181774 0.292953,-0.222717 0,-0.773597 -2.337648,-1.537595 -4.31899,-2.177475 -6.059062,-2.207617 -0.0495,-8.81e-4 -0.09816,-1.23e-4 -0.147277,0 z m -8.28735,3.063896 C 0,0 0,0 82.593407,69.848449 Z m -29.719632,5.17e-4 C 0,0 0,0 52.873775,69.848966 Z m -18.160649,5.410522 c 0.674104,0 1.220598,0.546496 1.220598,1.220597 0,0.674103 -0.546494,1.220081 -1.220598,1.220081 -0.67694,0 -1.220597,-0.553423 -1.220597,-1.220081 0,-0.690834 0.566322,-1.220597 1.220597,-1.220597 z m 66.039894,0 c 0.66171,0 1.2206,0.535381 1.2206,1.220597 0,0.685398 -0.5599,1.220598 -1.2206,1.220598 -0.64021,0 -1.220079,-0.516742 -1.220079,-1.220598 0,-0.675993 0.549169,-1.220597 1.220079,-1.220597 z m -61.430873,3.177584 c 0.674103,0 1.220081,0.546496 1.220081,1.220597 0,0.58984 -0.418421,1.08198 -0.974618,1.195793 -0.809077,0.165583 -1.46606,-0.485361 -1.46606,-1.195793 0.02333,-0.702988 0.542938,-1.165767 1.220597,-1.220597 z m 56.822371,0 c 0.661655,0 1.220597,0.535331 1.220597,1.220597 0,0.759304 -0.64091,1.220597 -1.220597,1.220597 -0.776398,0 -1.349134,-0.718642 -1.195793,-1.466577 0.120055,-0.586616 0.639784,-0.974617 1.195793,-0.974617 z m -45.87937,0.715202 c 0.674103,0 1.220598,0.546495 1.220598,1.220597 0,0.741945 -0.620674,1.220597 -1.220598,1.220597 -0.686698,0 -1.220597,-0.561093 -1.220597,-1.220597 0,-0.639239 0.514682,-1.220597 1.220597,-1.220597 z m 34.936369,0 c 0.661649,0 1.220597,0.535327 1.220597,1.220597 0,0.685303 -0.559783,1.220597 -1.220597,1.220597 -0.703196,0 -1.220598,-0.579655 -1.220598,-1.220597 0,-0.675932 0.54962,-1.220597 1.220598,-1.220597 z m -39.398112,0.687813 c 0.898718,5.9e-5 1.627228,0.728574 1.627291,1.627291 -6.3e-5,0.898717 -0.728573,1.627231 -1.627291,1.627291 -0.896644,-6e-5 -1.627211,-0.728078 -1.627291,-1.627291 7e-6,-0.11234 0.0119,-0.221698 0.03359,-0.327629 0.15943,-0.778812 0.848074,-1.299616 1.593701,-1.299662 z m 43.859338,0 c 0.851119,5.3e-5 1.627228,0.684978 1.627291,1.627291 -5.5e-5,0.942531 -0.777066,1.627215 -1.627291,1.627291 -0.902313,-6e-5 -1.627239,-0.733959 -1.627291,-1.627291 7.9e-5,-0.892592 0.724422,-1.627231 1.627291,-1.627291 z m -35.399389,2.798795 c 0.898717,5.9e-5 1.627233,0.728573 1.627291,1.627291 -5.8e-5,0.898718 -0.728574,1.627233 -1.627291,1.627291 -0.867216,-7.7e-5 -1.627126,-0.70279 -1.627291,-1.627291 1.01e-4,-0.870038 0.704712,-1.627231 1.627291,-1.627291 z m 26.939957,0 c 0.851143,6.1e-5 1.627228,0.684991 1.627291,1.627291 -6.3e-5,0.942676 -0.777226,1.627215 -1.627291,1.627291 -0.902312,-6.4e-5 -1.627243,-0.733964 -1.627291,-1.627291 4.8e-5,-0.893325 0.724977,-1.627231 1.627291,-1.627291 z m -32.39027,1.641761 c 0.89871,6.3e-5 1.627233,0.728573 1.62729,1.627291 -6.4e-5,0.898717 -0.72858,1.627227 -1.62729,1.62729 -0.899409,-4.8e-5 -1.627211,-0.729881 -1.627291,-1.62729 5.3e-5,-0.851419 0.686123,-1.627207 1.627291,-1.627291 z m 37.840583,0 c 0.726607,5.2e-5 1.627221,0.572973 1.627291,1.627291 -7.1e-5,0.942553 -0.777074,1.627214 -1.627291,1.62729 -0.902334,-6.4e-5 -1.627214,-0.733961 -1.62729,-1.62729 7.6e-5,-0.893386 0.725014,-1.627229 1.62729,-1.627291 z m -44.575056,0.195853 c 0.674102,-10e-7 1.220597,0.546496 1.220597,1.220598 0,0.80869 -0.749106,1.343124 -1.466577,1.196309 -0.419003,-0.08575 -0.841961,-0.422984 -0.949813,-0.95033 -0.139554,-0.681894 0.355112,-1.466582 1.195793,-1.466577 z m 51.309012,0 c 0.661664,0 1.220598,0.53533 1.220598,1.220598 0,0.685315 -0.559784,1.220597 -1.220598,1.220597 -0.756142,0 -1.220597,-0.641899 -1.220597,-1.220597 0,-0.67593 0.549623,-1.220598 1.220597,-1.220598 z m -75.403148,0.63562 c 0.281463,3.92e-4 0.540586,0.138475 0.558622,0.322978 l 1.503267,15.371676 c -1.686706,5.73205 -1.601263,9.08512 -0.747241,11.58482 0.348204,1.01918 0.810076,1.87964 1.401982,2.87889 -0.08211,-0.20675 -0.158181,-0.4138 -0.22841,-0.62167 -0.07023,-0.2079 -0.134955,-0.41629 -0.193787,-0.62528 -0.549023,-1.95024 -0.642407,-4.05737 -0.329695,-6.40891 0.327603,-2.46371 1.062135,-4.97742 2.011246,-7.923549 0.571105,-1.772751 1.164327,-3.547667 1.657264,-5.312854 l 0.892452,-0.237711 0.357084,1.190108 c 0.28034,0.93471 2.383145,0.674668 2.619478,0.535885 l 0.297139,-0.714169 0.922942,-0.149345 c 0.341067,1.939343 0.713006,3.939737 1.517736,5.595525 l -1.190108,1.51774 c -0.533569,5.12647 0.513223,7.7977 1.441773,9.98698 0.340949,0.80388 0.690967,1.59249 0.998388,2.45308 -0.152159,-0.51134 -0.297134,-1.01918 -0.433048,-1.52238 -1.021425,-3.78166 -1.399915,-6.93891 -0.578776,-9.4294 l 0.803568,-0.23823 c 0.805609,4.37451 2.619404,8.35743 4.612638,12.67829 v 0.59532 c -2.262894,0.5518 -3.938939,1.69246 -5.466332,2.97811 -0.853166,0.71812 -1.858744,1.66303 -2.688208,2.37867 0.410951,-8.6546 -1.595413,-11.05977 -2.931088,-12.48813 -0.250746,-0.26816 -0.50572,-0.52516 -0.759126,-0.78548 0.206982,0.72868 0.590493,1.41782 0.944645,2.15232 1.210502,2.51053 1.589139,5.10517 -3.137276,10.11515 -1.203267,1.27539 -1.951593,3.03176 -3.521749,4.93458 -0.988515,-1.72439 -2.056362,-2.8212 -3.025655,-4.59094 -1.577409,-2.88002 -2.61003,-7.22098 -1.497586,-17.43201 l 3.496944,-18.288285 c 0.105869,-0.364984 0.40945,-0.50217 0.690914,-0.501779 z m 99.297818,0.01964 c 0.26945,-0.05957 0.75272,0.0058 0.8909,0.482141 l 3.49694,18.288283 c 1.79128,16.44195 -1.9698,17.56768 -4.52375,22.02295 -1.55924,-1.88938 -2.18452,-3.46344 -3.52124,-4.9351 -4.48898,-4.75819 -4.32524,-7.38183 -3.3941,-9.55394 0.41919,-0.97793 0.93841,-1.78695 1.20147,-2.71301 -1.90054,1.95238 -3.87103,3.70074 -3.74447,11.60807 0.009,0.52717 0.0261,1.08175 0.0537,1.66554 -0.6044,-0.52146 -1.18949,-1.06169 -1.78438,-1.59267 h -5.2e-4 c -1.5294,-1.36506 -3.52721,-3.07094 -6.369638,-3.76411 v -0.59532 c 1.955248,-4.23851 3.803568,-8.28131 4.613158,-12.67829 l 0.80357,0.23823 c 0.98562,2.98912 0.20494,6.86108 -1.01235,10.95178 0.30742,-0.86059 0.65744,-1.64921 0.99839,-2.45308 0.92511,-2.18121 1.97722,-4.85449 1.44229,-9.98698 l -1.19011,-1.51774 c 0.74824,-1.539478 1.11476,-3.30434 1.51774,-5.595523 l 0.92242,0.149345 0.29766,0.714169 c 0.24724,0.145416 2.34235,0.38932 2.61896,-0.535885 l 0.35709,-1.190108 0.89297,0.237711 c 1.97172,7.060731 5.5438,14.276591 2.91661,20.892261 0.54235,-0.91556 1.03682,-1.80849 1.4025,-2.87889 0.90311,-2.64332 0.87315,-6.07625 -0.74776,-11.58482 l 1.50275,-15.371674 c 0.0117,-0.115591 0.11828,-0.249923 0.35916,-0.30334 z m -41.992273,5.531962 c 0.859999,0.02035 1.478917,0.327488 2.134753,0.788069 h 5.17e-4 c 2.616729,2.044771 3.071184,7.394894 -0.409794,7.945251 -2.425166,-0.180239 -1.92159,-2.268809 -3.744991,-2.447909 h -5.17e-4 c -0.182342,-0.01773 -0.731392,-0.03563 -1.275891,0.299703 -0.553416,0.340968 -2.038517,3.017408 -4.196126,2.971908 h -5.17e-4 l -0.0026,-0.003 c -0.0019,8e-5 -0.08278,0.004 -0.12351,0 -0.0011,-0.11928 0.02201,-0.0443 -0.0026,0.005 -1.465154,0.0398 -2.840326,-1.300234 -3.851444,-2.654617 -0.141566,-0.274667 -0.962147,-0.774715 -1.838648,-0.582396 -0.781402,0.153654 -1.135913,0.817826 -1.584399,1.396814 -1.146481,1.419411 -2.637846,1.141829 -3.527434,0.224276 -1.358321,-1.400963 -1.148466,-4.383597 0.358118,-6.325712 1.001545,-1.291032 2.181158,-1.595883 2.949691,-1.615405 -0.568345,0.712543 -1.226086,1.373991 -1.776119,2.097029 -0.330368,0.434281 -0.621607,0.890796 -0.830957,1.39423 -0.21025,0.600418 -0.468777,1.565441 -0.279053,2.285132 0.0705,0.267423 0.18759,0.427906 0.299723,0.492993 l 0.821139,0.462504 c 0.786384,-1.105526 1.609958,-1.897181 2.458248,-2.239656 0.616404,-0.248864 1.295251,-0.284709 2.04897,0.0553 1.211084,0.562752 2.015836,1.687828 2.963127,2.584338 0.592685,0.577063 1.396885,0.612118 2.16888,0.611248 0.02038,-7.62e-4 0.02239,-0.0036 0.09767,-0.0098 0.924424,-0.04573 1.556896,-0.682541 2.151285,-1.323475 1.007772,-1.074922 2.319564,-2.474485 3.983736,-2.025199 h 5.17e-4 c 0.730435,0.197291 1.528551,0.750785 2.398303,1.844332 0.12427,0.156242 0.250035,0.323986 0.377238,0.502811 l 0.820622,-0.46302 c 0.356403,-0.235572 0.588359,-1.158515 0.02119,-2.778126 -0.586473,-1.35585 -1.693179,-2.363891 -2.609143,-3.49281 z M 64.827567,107.2255 c 0.781236,0.0153 1.500467,0.24059 2.18953,0.58962 0.07826,0.0385 0.152946,0.0725 0.230994,0.0982 0.207771,0.0684 0.75692,0.0704 0.969966,0 0.07805,-0.0257 0.15326,-0.0597 0.231511,-0.0982 1.923507,-1.04636 4.248394,-0.50772 6.153113,0.33073 0.08183,0 2.012871,1.04708 2.7373,1.4056 0.297039,0 2.308369,1.57866 7.777303,2.03037 -3.303854,3.64208 -5.046667,4.60069 -5.104081,4.71134 -4.821746,3.44791 -9.395652,3.62402 -12.357385,3.56257 -6.259968,0.19505 -11.292502,-1.66889 -17.306936,-8.27325 8.691771,-0.72113 8.948254,-4.22896 14.478703,-4.35638 z m 2.987429,14.85218 c 2.052707,0.0686 5.818778,1.69895 6.832141,2.61328 -4.151884,-1.21746 -6.042006,-1.13779 -6.914342,-1.08874 -1.95827,-0.11136 -4.175092,0.28573 -6.91379,1.08885 1.123985,-1.0144 4.941714,-2.55255 6.836275,-2.61383 0.05327,-0.007 0.106453,2.9e-4 0.159716,4.4e-4 z"
       sodipodi:nodetypes="sccssccsscsscscccsccccccsccccscccccscccccccccccccccsccsccccccccccccccccccscccccccccsccccccccccscccccccsccscccccccssscsscccccccccccsccsccccccccccccccssscccccccccccccccsccccccccscccsccsccscccsccccccccccccccccccccccccccccssccccccccccccccccccccccccccccccccssssssscscscssscssssssssssscccscccccccccccccccccccccccccccssscsssssssccssccccsscsccccccccscsccccscscssssssccccccsscccccccccscccccccccsscccccccccccssccccccscssccsssssssccccccscscccccccccccccccccccc" /></g><metadata
     id="metadata4608"><rdf:RDF><cc:Work
         rdf:about=""><cc:license
           rdf:resource="http://creativecommons.org/licenses/by-sa/4.0/" /><dc:rights><cc:Agent><dc:title>Apex Legends</dc:title></cc:Agent></dc:rights><dc:publisher><cc:Agent><dc:title>Apex Legends</dc:title></cc:Agent></dc:publisher><dc:subject><rdf:Bag><rdf:li>Conduit</rdf:li><rdf:li>Legend</rdf:li></rdf:Bag></dc:subject><dc:title>Conduit</dc:title></cc:Work><cc:License
         rdf:about="http://creativecommons.org/licenses/by-sa/4.0/"><cc:permits
           rdf:resource="http://creativecommons.org/ns#Reproduction" /><cc:permits
           rdf:resource="http://creativecommons.org/ns#Distribution" /><cc:requires
           rdf:resource="http://creativecommons.org/ns#Notice" /><cc:requires
           rdf:resource="http://creativecommons.org/ns#Attribution" /><cc:permits
           rdf:resource="http://creativecommons.org/ns#DerivativeWorks" /><cc:requires
           rdf:resource="http://creativecommons.org/ns#ShareAlike" /></cc:License></rdf:RDF></metadata></svg>
