<?xml version="1.0" encoding="UTF-8" standalone="no"?>
<!-- Created with Inkscape (http://www.inkscape.org/) -->

<svg
   width="512"
   height="512"
   viewBox="0 0 135.46666 135.46667"
   version="1.1"
   id="svg5"
   inkscape:version="1.2.2 (732a01da63, 2022-12-09)"
   sodipodi:docname="Newcastle_Icon.svg"
   xmlns:inkscape="http://www.inkscape.org/namespaces/inkscape"
   xmlns:sodipodi="http://sodipodi.sourceforge.net/DTD/sodipodi-0.dtd"
   xmlns="http://www.w3.org/2000/svg"
   xmlns:svg="http://www.w3.org/2000/svg">
  <sodipodi:namedview
     id="namedview7"
     pagecolor="#ffffff"
     bordercolor="#666666"
     borderopacity="1.0"
     inkscape:pageshadow="2"
     inkscape:pageopacity="0.0"
     inkscape:pagecheckerboard="0"
     inkscape:document-units="px"
     showgrid="false"
     units="px"
     width="512px"
     inkscape:zoom="1.8244669"
     inkscape:cx="121.40533"
     inkscape:cy="218.41997"
     inkscape:window-width="2560"
     inkscape:window-height="1361"
     inkscape:window-x="-9"
     inkscape:window-y="-9"
     inkscape:window-maximized="1"
     inkscape:current-layer="g16365"
     inkscape:showpageshadow="2"
     inkscape:deskcolor="#d1d1d1" />
  <defs
     id="defs2" />
  <g
     inkscape:label="Layer 1"
     inkscape:groupmode="layer"
     id="layer1">
    <g
       id="g16966"
       transform="matrix(3.3688276,0,0,3.3688276,-385.0263,-227.31537)">
      <g
         id="g16365">
        <path
           style="fill:#000000;fill-opacity:1;stroke:none;stroke-width:0.264583px;stroke-linecap:butt;stroke-linejoin:miter;stroke-opacity:1"
           d="m 119.659,82.697388 -1.63123,1.377685 v 9.770689 l 1.63123,1.051394 z"
           id="path3060"
           sodipodi:nodetypes="ccccc" />
        <path
           id="path6315"
           style="fill:#000000;fill-opacity:1;stroke:none;stroke-width:0.999999px;stroke-linecap:butt;stroke-linejoin:miter;stroke-opacity:1"
           d="m 491.24023,264.73242 c -13.35862,4.07368 -20.77915,10.83165 -26.17382,18.50196 -3.52963,1.64264 -6.24125,4.37439 -8.22071,8.08398 v 20.14258 l -2.98828,1.72461 v 47.60547 l 3.125,0.68359 c 1.95149,4.83849 4.67414,8.97649 8.63281,11.99023 -3.48616,-7.38195 -3.89196,-15.07144 -3.76757,-22.81445 -4.47043,-1.98393 -7.22753,-5.5915 -4.79688,-14.11328 2.41172,-6.42478 19.01623,-14.86369 27.0625,-16.16992 14.52673,-8.50129 30.67833,-11.15441 47.20703,0 9.53326,1.75563 18.93869,5.12054 27.70508,16.58984 v -45.63867 c -9.38279,-9.77681 -16.18507,-21.59664 -34.35156,-26.58594 v 2.74219 h -33.4336 z m 16.27539,4.01367 c 0.23583,-10e-4 0.47118,-6.2e-4 0.70704,0 15.09475,0.04 30.20256,3.81309 38.51172,11.19922 -25.30693,-11.6399 -50.90244,-13.3654 -76.93946,0 8.12319,-7.42835 22.86389,-11.12376 37.7207,-11.19922 z m 0.30079,3.79688 c 0.26179,7e-5 0.52358,0.002 0.78515,0.004 16.74103,0.12921 33.36471,4.68709 41.55274,13.28515 -27.56973,-14.70201 -55.46809,-16.2867 -83.8125,0 8.38901,-8.83021 24.4723,-13.1419 40.68945,-13.28515 0.26156,-0.002 0.52336,-0.004 0.78516,-0.004 z m -2.05274,2.74219 h 2.74024 v 5.48242 l 7.81054,-0.002 9.18164,10.14063 c 6.934,1.00251 14.28053,3.23515 19.9375,7.52148 v 1.93555 l 6.3711,4.51953 v 8.08594 c -26.82705,-13.88176 -55.48861,-16.7555 -87.42188,0 v -8.63281 l 5.34375,-3.97266 v -1.93555 c 6.7143,-5.18514 13.83844,-6.45703 20.55274,-7.52148 l 9.18164,-10.14063 h 6.30273 z m 1.18164,27.40625 c 0.94295,-0.0113 1.97376,2.28987 1.38281,5.61718 11.36765,-0.28072 16.6761,3.96888 21.2793,7.94727 -12.34386,-5.91383 -27.05727,-7.36837 -42.75195,-0.13672 5.38911,-5.65049 11.98055,-7.28849 18.9082,-7.81055 -0.32059,-3.83156 0.33881,-5.47938 1.08985,-5.60937 0.0302,-0.005 0.0614,-0.007 0.0918,-0.008 z m 25.56446,15.71484 c 9.64414,0.33927 18.29957,2.71779 23.83593,11.5293 -6.89132,-6.40272 -15.14748,-9.49107 -23.83593,-11.5293 z m -49.21094,0.17578 c -8.68846,2.03824 -16.94461,5.12658 -23.83594,11.5293 5.53637,-8.81151 14.19179,-11.19003 23.83594,-11.5293 z"
           transform="scale(0.26458333)" />
        <path
           style="fill:none;stroke:#000000;stroke-width:0.264583px;stroke-linecap:butt;stroke-linejoin:miter;stroke-opacity:1"
           d="m 130.79525,70.268 0.56399,-1.717139 h 6.10139 l 0.61526,1.717139"
           id="path7840"
           sodipodi:nodetypes="cccc" />
        <path
           style="fill:#000000;fill-opacity:1;stroke:none;stroke-width:0.264583px;stroke-linecap:butt;stroke-linejoin:miter;stroke-opacity:1"
           d="m 131.58996,70.268 h 5.63994 l -0.23382,-0.897796 h -5.12412 z"
           id="path7842"
           sodipodi:nodetypes="ccccc" />
        <path
           style="fill:none;stroke:#000000;stroke-width:0.529167;stroke-linecap:butt;stroke-linejoin:miter;stroke-miterlimit:4;stroke-dasharray:none;stroke-opacity:1"
           d="m 126.54767,89.676452 -0.94263,0.688843 v 0.507568 c -3.91076,2.804 -1.02489,14.996427 9.22687,15.607727 6.9086,-0.24553 11.85098,-7.796474 10.51391,-14.211914 l -1.745,-1.417961 v -0.507569 l -1.10524,-0.580077"
           id="path8238"
           sodipodi:nodetypes="cccccccc" />
        <path
           id="path8957"
           style="fill:#000000;fill-opacity:1;stroke:none;stroke-width:0.999999px;stroke-linecap:butt;stroke-linejoin:miter;stroke-opacity:1"
           d="m 508.70898,324.77734 c -0.16773,-4e-5 -0.33782,0.002 -0.50976,0.006 -5.5505,0.24 -10.95441,0.9171 -14.72656,6.49219 -5.64896,1.76846 -10.89032,3.16323 -15.79883,6.90625 2.83408,4.49177 -0.91237,7.08669 -0.90039,10.5332 0.0265,9.26042 9.62141,15.14916 15.14844,22.57618 5.19007,-10.47569 29.65981,-11.42141 34.78515,-1.45313 0.84692,-11.36884 14.13689,-8.47557 14.04883,-21.41406 l -1.07617,-9.69531 c -4.07123,-2.17777 -4.5158,-4.53567 -13.16797,-6.48438 1.1156,5.43459 -2.12189,7.47578 -3.25,6.15039 -2.23147,-2.62171 1.9685,-2.1391 1.60351,-6.3457 -3.30303,-0.24819 -5.58925,-7.26901 -16.15625,-7.27149 z m -10.12109,5.09961 c 0.0621,-6.4e-4 0.1239,1.6e-4 0.18555,0.002 3.69895,0.10748 6.90614,4.60737 9.91015,5.27148 2.80989,-0.42276 6.64792,-5.09149 9.11524,-4.74219 8.71343,1.8361 -0.41607,11.09987 -0.68555,2.32032 -2.99097,3.97182 -4.43658,4.2758 -8.33203,4.55273 -5.60209,0.42635 -5.9796,-4.27457 -10.85156,-4.26172 2.2775,4.52249 -3.01524,5.85216 -3.48828,0.0957 0.14362,-1.48636 0.87451,-2.73722 3.58398,-3.19726 0.18828,-0.0257 0.37627,-0.0391 0.5625,-0.041 z m -7.15039,3.82032 5.52344,5.52343 c -4.43955,-0.74681 -5.98949,-2.71111 -5.52344,-5.52343 z m 13.04102,8.66601 c 1.13436,0.007 2.3413,0.0865 3.625,0.24805 1.49336,-0.075 2.87938,-0.0879 4.16601,-0.0449 2.14405,0.0716 4.01069,0.29715 5.63672,0.63867 9.90021,2.07933 10.84864,8.49318 10.73828,11.1289 -4.18726,-4.04606 -9.03127,-7.62183 -14.14648,-8.04101 -3.7104,1.54047 -6.52534,3.08915 -12.11133,0 -5.68052,0.29614 -9.02679,5.44112 -13.17774,8.91406 -0.95676,-3.8894 2.4859,-12.69169 14.78711,-12.8418 0.15907,-0.002 0.32037,-0.003 0.48243,-0.002 z m 4.74218,6.66992 c 6.91794,-0.0262 13.82309,1.32133 15.25782,4.23633 -5.84712,-1.60965 -11.39967,-1.93828 -16.47266,-0.19336 -4.93482,-2.31556 -9.66094,-1.29514 -14.33984,0.48438 0.78657,-2.82597 7.74873,-4.40305 14.88476,-4.52149 0.223,-0.004 0.44676,-0.005 0.66992,-0.006 z m -17.00781,6.75586 c 9.95554,0.97986 20.56536,1.08604 32.07031,0 -1.13472,4.02574 -30.8677,5.73495 -32.07031,0 z m 15.98633,4.69922 c 3.81476,3.5e-4 7.69409,0.29046 11.62695,0.82227 -7.7331,0.25417 -15.38944,0.35818 -22.86523,0.0977 3.67464,-0.63012 7.42352,-0.92027 11.23828,-0.91992 z"
           transform="scale(0.26458333)" />
        <path
           style="fill:#000000;fill-opacity:1;stroke:none;stroke-width:0.264583px;stroke-linecap:butt;stroke-linejoin:miter;stroke-opacity:1"
           d="m 121.6688,90.264614 c 0.24463,-1.24902 3.93469,-3.697895 6.87047,-4.255588 3.5589,-2.086586 7.22445,-3.330608 11.45933,-0.07691 2.59069,0.462945 5.07805,1.352136 7.12682,4.050501 0.48496,2.543724 -0.90158,2.335484 -1.61506,0.563994 -1.28897,-1.94519 -3.33542,-3.103651 -6.12703,-3.409598 -4.62394,-3.734721 -7.59584,-2.277282 -10.33134,-0.07691 -2.18876,0.598996 -4.25728,1.350301 -5.43485,3.230144 -0.42094,2.617256 -1.95176,1.766867 -1.94834,-0.02563 z"
           id="path14857"
           sodipodi:nodetypes="cccccccccc" />
        <path
           style="fill:#000000;fill-opacity:1;stroke:none;stroke-width:0.264583px;stroke-linecap:butt;stroke-linejoin:miter;stroke-opacity:1"
           d="m 147.8176,91.443872 c -0.1242,0.966563 -0.59885,1.349049 -1.12799,1.640711 0.50102,2.268879 -0.22351,3.88894 -0.84599,5.563026 1.84775,-1.766709 2.16491,-4.349734 1.97398,-7.203737 z"
           id="path15747"
           sodipodi:nodetypes="cccc" />
        <path
           style="fill:#000000;fill-opacity:1;stroke:none;stroke-width:0.320422px;stroke-linecap:butt;stroke-linejoin:miter;stroke-opacity:1"
           d="m 148.48199,82.28952 2.28383,1.443192 V 93.96798 l -2.28383,1.101386 z"
           id="path3060-7"
           sodipodi:nodetypes="ccccc" />
      </g>
    </g>
  </g>
</svg>
