<?xml version="1.0" encoding="UTF-8" standalone="no"?>
<!-- Created with Inkscape (http://www.inkscape.org/) -->

<svg
   width="512"
   height="512"
   viewBox="0 0 135.46666 135.46667"
   version="1.1"
   id="svg5"
   inkscape:version="1.2.2 (732a01da63, 2022-12-09)"
   sodipodi:docname="Revenant_Icon.svg"
   xmlns:inkscape="http://www.inkscape.org/namespaces/inkscape"
   xmlns:sodipodi="http://sodipodi.sourceforge.net/DTD/sodipodi-0.dtd"
   xmlns="http://www.w3.org/2000/svg"
   xmlns:svg="http://www.w3.org/2000/svg">
  <sodipodi:namedview
     id="namedview7"
     pagecolor="#ffffff"
     bordercolor="#666666"
     borderopacity="1.0"
     inkscape:showpageshadow="2"
     inkscape:pageopacity="0.0"
     inkscape:pagecheckerboard="true"
     inkscape:deskcolor="#d1d1d1"
     inkscape:document-units="px"
     showgrid="false"
     inkscape:zoom="1"
     inkscape:cx="-452"
     inkscape:cy="-109"
     inkscape:window-width="3840"
     inkscape:window-height="2107"
     inkscape:window-x="-8"
     inkscape:window-y="-8"
     inkscape:window-maximized="1"
     inkscape:current-layer="layer2" />
  <defs
     id="defs2">
    <pattern
       id="EMFhbasepattern"
       patternUnits="userSpaceOnUse"
       width="6"
       height="6"
       x="0"
       y="0" />
  </defs>
  <g
     inkscape:groupmode="layer"
     id="layer2"
     inkscape:label="Invertable"
     style="display:inline">
    <g
       id="g1365"
       transform="matrix(2.1509381,0,0,2.1509381,-77.97631,-71.017528)">
      <path
         id="path1105"
         style="display:inline;fill:#000000;fill-opacity:1;stroke:none;stroke-width:0.065;stroke-linecap:butt;stroke-linejoin:miter;stroke-dasharray:none;stroke-opacity:1"
         d="m 55.705643,76.491454 -0.05529,0.484725 c 1.893567,5.195587 2.694006,6.929124 4.186825,9.263517 3.450367,5.395506 4.078268,6.484316 4.833296,8.36228 0.365366,0.708165 1.563488,0.873287 3.080949,0.813387 l -0.01809,-7.175789 h -2.972428 l -0.379822,0.343648 -0.05374,0.921391 -0.397909,-0.07183 C 63.081073,87.706067 62.441988,85.743795 61.356978,83.850178 60.205335,81.84027 59.624474,79.804037 58.79641,77.557539 57.582691,76.559911 56.635517,76.495621 55.705643,76.491454 Z m 24.073466,0 c -0.929874,0.0042 -1.877048,0.06846 -3.090768,1.066085 -0.828063,2.246498 -1.408924,4.282731 -2.560567,6.292639 -1.08501,1.893617 -1.724095,3.855889 -2.572453,5.582605 l -0.397908,0.07183 -0.05426,-0.921391 -0.379305,-0.343648 h -2.990516 l 0.01809,7.175789 c 1.517462,0.0599 2.697496,-0.105222 3.062861,-0.813387 0.755029,-1.877964 1.382929,-2.966774 4.833297,-8.36228 1.492819,-2.334393 2.293257,-4.06793 4.186825,-9.263517 z"
         sodipodi:nodetypes="ccscccccccsccccscccccccscc" />
      <path
         style="fill:#000000;fill-opacity:1;stroke:none;stroke-width:0.165;stroke-linecap:butt;stroke-linejoin:miter;stroke-dasharray:none;stroke-opacity:1"
         d="m 56.030121,37.089283 c -3.260242,1.512926 -7.544248,5.819101 -7.872844,8.588557 -1.47233,7.046368 -2.241208,13.76044 -3.067343,20.806807 -0.953808,3.477378 -1.941411,7.030797 -2.632803,9.91774 -0.05568,1.466741 -0.409945,2.455736 -0.153365,4.422087 0.165047,1.393228 0.621252,1.621822 0.971325,2.274945 8.774721,7.935405 13.101827,7.714545 18.404054,8.409631 l -1.099131,-1.891528 c -1.46071,-0.0045 -10.172474,-1.990164 -13.419623,-6.671471 -0.293062,-1.100363 -0.833943,-1.795585 -0.255613,-4.013107 1.378695,-2.724429 2.220721,-4.059712 3.092904,-7.514987 1.032296,-6.059867 1.623521,-12.308764 3.527444,-17.995077 0.920507,-2.30961 2.011256,-4.548286 5.342286,-5.853512 v -0.485661 c -2.331394,-3.11497 -2.646249,-6.545024 -2.837291,-9.994424 z"
         id="path995"
         sodipodi:nodetypes="ccccccccccccccc" />
      <path
         id="path1097"
         style="display:inline;fill:#000000;fill-opacity:1;stroke:none;stroke-width:0.065;stroke-linecap:butt;stroke-linejoin:miter;stroke-dasharray:none;stroke-opacity:1"
         d="m 64.235355,55.800211 -1.086239,1.086238 3.693315,10.185942 0.908988,0.02584 0.890902,-0.02584 3.693315,-10.185942 -1.086239,-1.086238 h -3.516065 z m 0.945679,1.712557 h 2.570385 2.552299 l -2.559017,7.790222 z" />
      <path
         id="path1095"
         style="display:inline;fill:#000000;fill-opacity:1;stroke:none;stroke-width:0.065;stroke-linecap:butt;stroke-linejoin:miter;stroke-dasharray:none;stroke-opacity:1"
         d="m 58.936454,34.97926 c -0.518237,-0.0033 -1.045891,0.201313 -1.641244,0.646472 -0.909591,1.408149 -0.308148,4.603783 -0.191719,5.517493 1.688292,5.407025 1.783846,4.321381 6.964432,13.890108 h 3.683496 3.66541 c 5.180584,-9.568727 5.27614,-8.483083 6.964432,-13.890108 0.116429,-0.91371 0.717872,-4.109344 -0.191719,-5.517493 -0.595355,-0.445159 -1.123007,-0.649755 -1.641244,-0.646472 -0.354582,0.0022 -0.704769,0.101863 -1.069702,0.288871 l 0.383956,0.502812 c 0.303075,1.76496 -0.01092,3.150297 -0.318844,4.539258 L 70.457197,51.710538 H 67.733332 65.027555 L 59.941043,40.310201 C 59.633119,38.92124 59.319125,37.535903 59.6222,35.770943 l 0.383956,-0.502812 c -0.364934,-0.187008 -0.71512,-0.286625 -1.069702,-0.288871 z" />
      <path
         id="path1093"
         style="display:inline;fill:#000000;fill-opacity:1;stroke:none;stroke-width:0.065;stroke-linecap:butt;stroke-linejoin:miter;stroke-dasharray:none;stroke-opacity:1"
         d="m 67.73695,33.587614 c -2.432787,0.08881 -4.819302,0.246088 -6.923608,1.320332 -0.302945,1.278057 -0.329697,2.462285 -0.412378,3.74034 0.589711,3.455944 2.062993,5.069663 3.135209,7.429004 1.508374,-0.338455 2.502846,-0.178269 4.205944,-0.148311 1.7031,-0.02996 2.698088,-0.190144 4.206462,0.148311 1.072216,-2.359341 2.545498,-3.97306 3.135209,-7.429004 -0.08268,-1.278055 -0.109433,-2.462283 -0.412378,-3.74034 -2.104308,-1.074244 -4.501675,-1.231524 -6.93446,-1.320332 z" />
      <path
         id="path1101"
         style="display:inline;fill:#000000;fill-opacity:1;stroke:none;stroke-width:0.065;stroke-linecap:butt;stroke-linejoin:miter;stroke-dasharray:none;stroke-opacity:1"
         d="m 59.455285,48.591865 -2.990515,1.737879 -0.10232,0.665076 1.655197,4.95887 -0.0093,14.007413 6.50813,3.118156 c 2.279284,0.833798 2.628086,0.7156 3.216857,0.715719 l 0.0036,-6.061646 h -1.30483 l -4.065902,-11.063924 0.999939,-1.176155 z m 16.574182,0 -3.910873,6.901388 0.999939,1.176155 -4.065901,11.063924 h -1.30483 c -3.242195,0.398848 -0.01568,4.041097 -0.01447,6.061646 0.588772,-1.19e-4 0.95566,0.118079 3.234945,-0.715719 l 6.50813,-3.118156 -0.0093,-14.007413 1.655196,-4.95887 -0.102319,-0.665076 z"
         sodipodi:nodetypes="cccccccccccccccccccccccc" />
      <path
         id="path1103"
         style="display:inline;fill:#000000;fill-opacity:1;stroke:none;stroke-width:0.065;stroke-linecap:butt;stroke-linejoin:miter;stroke-dasharray:none;stroke-opacity:1"
         d="m 55.084492,52.170458 c -2.566529,4.520996 -2.713428,10.972329 -3.907771,16.35094 -0.101654,0.706554 0.04681,1.239431 0.377238,1.801957 0.198657,0.891768 0.06925,1.779222 0.05426,2.628264 l 2.147156,2.658235 c 1.496608,-0.02994 2.601614,0.08137 3.246313,0.358118 1.893858,0.617703 2.970097,1.776929 3.662309,4.343404 0.613379,2.274206 1.68324,3.916566 3.852478,4.705139 l 3.216857,-0.0124 3.234945,0.0124 c 2.169238,-0.788573 3.239099,-2.430933 3.852478,-4.705139 0.692209,-2.566475 1.768451,-3.725701 3.662309,-4.343404 0.644699,-0.276748 1.749705,-0.388058 3.246313,-0.358118 l 2.147156,-2.658235 c -0.01499,-0.849042 -0.1444,-1.736496 0.05426,-2.628264 0.330428,-0.562526 0.478892,-1.095403 0.377238,-1.801957 -1.194346,-5.378611 -1.34124,-11.829944 -3.907772,-16.35094 l -2.658235,3.910873 -0.02532,13.802775 3.386874,-1.801958 c -1.124105,4.009935 -2.740139,7.88184 -8.496639,5.179529 -2.401776,1.54084 -3.221811,2.892325 -3.900537,4.457092 0.404518,-1.364546 0.638431,-2.687822 2.671154,-4.44779 -1.163771,0.374911 -2.112614,1.065842 -3.644222,0.943095 -1.531605,0.122747 -2.462361,-0.568184 -3.626135,-0.943095 2.032723,1.759968 2.266634,3.083244 2.671155,4.44779 -0.678728,-1.564767 -1.498761,-2.916252 -3.900537,-4.457092 -5.7565,2.702311 -7.372534,-1.169594 -8.496639,-5.179529 l 3.386873,1.801958 -0.02532,-13.802775 z M 53.825654,69.69497 c 0.02841,0.118762 0.05283,0.23549 0.07493,0.350883 0.533505,3.186377 4.642646,5.262325 5.085386,5.563068 0.04266,0.02898 4.606608,2.074118 4.190534,6.286338 -0.167075,-1.387817 0.163844,-2.312044 -2.09632,-4.599 -0.809198,-0.83887 -1.594728,-1.272153 -2.331641,-1.629135 -1.192364,-0.773284 -3.51486,-2.409779 -4.00006,-3.2889 -0.496386,-0.897272 -0.694343,-1.171903 -0.882978,-2.156975 -0.0288,-0.115266 -0.01945,-0.407673 -0.03985,-0.526279 z m 27.833443,0 c -0.0204,0.118606 -0.02274,0.253157 -0.05154,0.368423 -0.153462,1.569565 -0.294477,1.523835 -0.812818,2.402528 -0.794583,0.859 -1.420159,1.63059 -4.210535,3.294747 -0.739996,0.35527 -1.334139,1.005906 -2.331641,1.898075 -2.475374,2.134059 -1.704236,6.112035 -1.874153,4.318367 -0.110992,-1.171648 0.13277,-2.128793 0.563893,-2.919853 1.044226,-1.916032 3.105115,-2.938385 3.854655,-3.582806 0.226301,-0.278767 4.792301,-2.33657 4.728748,-5.241509 0.0221,-0.115393 0.104985,-0.41921 0.133395,-0.537972 z m -13.907678,8.712129 c 1.060366,-0.02189 1.885078,0.634854 2.104781,1.246953 l 0.01809,3.01842 c -0.04933,0.615478 0.401327,0.849182 0.612366,1.265556 -0.725903,-0.26459 -1.348591,-0.564814 -1.434021,-1.048515 -0.01292,-1.412334 -0.580302,-1.41142 -1.301213,-1.42782 -0.720908,0.0164 -1.306379,0.01548 -1.319299,1.42782 -0.08543,0.483701 -0.708118,0.783925 -1.434021,1.048515 0.211039,-0.416374 0.661696,-0.650078 0.612366,-1.265556 l 0.01809,-3.01842 c 0.219706,-0.612099 1.062503,-1.268843 2.122868,-1.246953 z"
         sodipodi:nodetypes="ccccccscccsccccccccccccccccccccccsccccccccccccsscccccccccccccccc" />
      <path
         style="display:inline;fill:#000000;fill-opacity:1;stroke:none;stroke-width:0.065;stroke-linecap:butt;stroke-linejoin:miter;stroke-dasharray:none;stroke-opacity:1"
         d="m 61.254441,72.062987 -5.729613,-2.656951 c 0.966171,3.144308 3.595754,3.85018 5.590261,2.943585 0.07673,-0.03488 0.06986,-0.23646 0.139352,-0.286634 z"
         id="path1107"
         sodipodi:nodetypes="ccsc" />
      <path
         id="path1113"
         style="display:inline;fill:#000000;fill-opacity:1;stroke:none;stroke-width:0.264583px;stroke-linecap:butt;stroke-linejoin:miter;stroke-opacity:1"
         d="m 67.493554,46.737715 c -1.067885,3.58e-4 -3.723611,0.003 -3.925342,0.0031 l 1.87017,4.156852 h 2.316655 2.291333 l 1.87017,-4.156852 c -0.202761,-1.42e-4 -2.88984,-0.0028 -3.946013,-0.0031 -0.05807,-1.9e-5 -0.176674,5e-6 -0.223759,0 h -0.0088 c -0.136767,-1.2e-5 -0.205952,-1.33e-4 -0.223759,0 -6.47e-4,-1.4e-5 -0.02111,1.3e-5 -0.02067,0 z" />
      <path
         style="display:inline;fill:#000000;fill-opacity:1;stroke:none;stroke-width:0.165;stroke-linecap:butt;stroke-linejoin:miter;stroke-dasharray:none;stroke-opacity:1"
         d="m 79.454617,37.089283 c 3.260242,1.512926 7.544248,5.819101 7.872844,8.588557 1.47233,7.046368 2.241208,13.76044 3.067343,20.806807 0.953808,3.477378 1.941411,7.030797 2.632803,9.91774 0.05568,1.466741 0.409945,2.455736 0.153365,4.422087 -0.165047,1.393228 -0.621252,1.621822 -0.971325,2.274945 -8.774721,7.935405 -13.101827,7.714545 -18.404054,8.409631 l 1.099131,-1.891528 c 1.46071,-0.0045 10.172474,-1.990164 13.419623,-6.671471 0.293062,-1.100363 0.833943,-1.795585 0.255613,-4.013107 C 87.201265,76.208515 86.359239,74.873232 85.487056,71.417957 84.45476,65.35809 83.863535,59.109193 81.959612,53.42288 81.039105,51.11327 79.948356,48.874594 76.617326,47.569368 v -0.485661 c 2.331394,-3.11497 2.646249,-6.545024 2.837291,-9.994424 z"
         id="path995-2"
         sodipodi:nodetypes="ccccccccccccccc" />
      <path
         style="display:inline;fill:#000000;fill-opacity:1;stroke:none;stroke-width:0.065;stroke-linecap:butt;stroke-linejoin:miter;stroke-dasharray:none;stroke-opacity:1"
         d="m 74.230297,72.062987 5.729613,-2.656951 c -0.966171,3.144308 -3.595754,3.85018 -5.590261,2.943585 -0.07673,-0.03488 -0.06986,-0.23646 -0.139352,-0.286634 z"
         id="path1107-9"
         sodipodi:nodetypes="ccsc" />
    </g>
  </g>
</svg>
