<?xml version="1.0" encoding="UTF-8" standalone="no"?>
<svg
   width="512"
   height="512"
   viewBox="0 0 135.46666 135.46667"
   version="1.1"
   id="svg8"
   inkscape:version="1.2.2 (732a01da63, 2022-12-09)"
   sodipodi:docname="Seer_Icon.svg"
   inkscape:export-filename="C:\Users\deeev\Downloads\Rampage Icon.png"
   inkscape:export-xdpi="97.545326"
   inkscape:export-ydpi="97.545326"
   xmlns:inkscape="http://www.inkscape.org/namespaces/inkscape"
   xmlns:sodipodi="http://sodipodi.sourceforge.net/DTD/sodipodi-0.dtd"
   xmlns="http://www.w3.org/2000/svg"
   xmlns:svg="http://www.w3.org/2000/svg"
   xmlns:rdf="http://www.w3.org/1999/02/22-rdf-syntax-ns#"
   xmlns:cc="http://creativecommons.org/ns#"
   xmlns:dc="http://purl.org/dc/elements/1.1/">
  <defs
     id="defs2" />
  <sodipodi:namedview
     id="base"
     pagecolor="#ffffff"
     bordercolor="#666666"
     borderopacity="1.0"
     inkscape:pageopacity="0.0"
     inkscape:pageshadow="2"
     inkscape:zoom="0.49497475"
     inkscape:cx="172.73608"
     inkscape:cy="162.63456"
     inkscape:document-units="mm"
     inkscape:current-layer="layer1"
     inkscape:document-rotation="0"
     showgrid="false"
     units="px"
     inkscape:window-width="2560"
     inkscape:window-height="1361"
     inkscape:window-x="-9"
     inkscape:window-y="-9"
     inkscape:window-maximized="1"
     inkscape:object-nodes="false"
     inkscape:pagecheckerboard="0"
     inkscape:showpageshadow="2"
     inkscape:deskcolor="#d1d1d1" />
  <metadata
     id="metadata5">
    <rdf:RDF>
      <cc:Work
         rdf:about="">
        <dc:format>image/svg+xml</dc:format>
        <dc:type
           rdf:resource="http://purl.org/dc/dcmitype/StillImage" />
      </cc:Work>
    </rdf:RDF>
  </metadata>
  <g
     inkscape:label="Layer 1"
     inkscape:groupmode="layer"
     id="layer1">
    <path
       id="path931"
       style="fill:#000000;fill-opacity:1;stroke-width:0.725474"
       d="m 59.630312,7.1527627 c -11.293165,1.515469 -10.596134,1.4451456 -11.332125,2.5905396 -1.541291,2.7836917 -4.073102,4.6161807 -4.80074,8.1364547 -0.584351,2.98505 -2.512947,3.245941 -2.585371,6.225976 -0.245814,3.559115 -2.221569,5.561347 -1.739948,8.724014 0.761172,4.991304 -1.09692,4.889535 -1.377693,16.388665 -0.03481,4.479205 -1.805517,10.117471 0.139528,13.420886 1.13007,0 1.862214,-6.991408 1.367359,-13.058119 -0.117827,-3.833629 1.503161,-7.365769 1.252119,-10.64741 -0.468902,-3.680285 2.252568,-7.070717 2.378665,-10.295495 0.304737,-3.931051 3.460779,-4.662991 2.769857,-8.297686 -0.894638,-2.915878 1.685134,-3.633084 1.75545,-5.852356 0.333554,-2.167782 1.591405,-3.518389 2.909898,-5.1707435 -1.286193,3.5512435 -2.404407,6.4384295 -1.14825,12.2095905 0.725258,3.189215 -1.274424,3.996208 -2.501656,6.441984 4.024611,0.329779 12.515889,-0.714489 15.226461,1.655712 3.345976,1.367012 4.410268,8.986645 4.105693,13.94592 -2.611742,-4.823565 -12.008109,-8.534521 -17.643885,-8.830987 -2.374768,-0.132276 -4.694021,-0.21101 -4.58525,2.053106 0.0059,1.38375 0.452228,1.558465 4.310332,1.688269 3.310064,0.172146 10.046459,1.928582 11.384317,4.980575 -3.672417,-2.609625 -9.431472,-4.390991 -13.841531,-3.498495 -2.583202,0.374541 -1.683901,1.586772 0.103351,1.117245 0.954275,-0.366189 1.070293,-0.179774 0.584978,0.938443 -1.561746,3.598436 0.334941,6.695053 3.846941,6.695053 2.243283,0 3.809145,-1.849837 3.809145,-4.381277 -2e-6,-1.16853 0.210945,-2.006301 0.526878,-2.006301 0.738413,0 7.056581,6.419545 6.635253,6.741707 -0.861039,0.658368 -15.840305,2.573301 -17.248558,2.205032 -1.523471,-0.398393 -1.56769,-0.307287 -0.736391,1.517222 1.304925,3.130134 -0.781934,5.089165 -0.83199,8.301302 0,2.453275 -3.307649,5.413057 -5.448763,4.87567 -5.045686,-2.335258 -5.532271,11.719552 -1.907895,13.568164 1.256927,1.216644 5.862328,8.915066 5.061191,10.61434 -3.082247,-4.580425 -3.926655,-6.947512 -7.883758,-10.391614 -0.443626,20.070196 10.80388,45.318461 30.096873,48.851801 3.316491,0.79995 19.618393,1.33787 23.017199,-0.0775 C 106.3099,119.84846 116.839,95.595044 119.43183,76.0607 c -2.27805,1.019614 -12.3989,13.49479 -11.75329,13.784173 3.24114,-13.125569 13.57408,-16.099692 15.33033,-31.194997 1.66341,-15.693191 -4.52729,-32.420828 -9.1214,-43.395282 C 99.451765,5.1066022 75.598265,5.0498467 59.630312,7.1527627 Z M 39.633083,10.164465 c -4.537935,2.146787 -9.220695,6.353421 -8.453747,7.594369 0.272441,0.440816 -0.690827,1.887849 -2.140955,3.216341 -3.064797,2.481778 -2.306312,5.037704 -3.756359,7.88479 -1.552089,3.074932 0.46036,5.62777 -2.09703,7.33547 -3.250228,2.941733 -1.968511,6.624751 0.27969,8.9433 -2.530945,-0.825066 -3.891765,-2.040572 -3.316714,0.918628 0.250822,1.254154 0.173253,2.641894 -0.172082,3.083534 -1.445064,2.889639 -0.724997,6.2328 -2.418457,9.099187 -1.125334,2.203307 1.769817,3.949224 2.490261,6.473315 1.845577,0.827868 2.855525,-1.449404 2.727508,-4.579374 -0.702258,-2.549853 2.414144,-7.677044 1.851566,-9.708452 -0.497692,-2.531226 2.404146,-3.761404 2.50114,-6.077664 -0.362606,-1.240417 3.626501,-4.20011 3.979603,-11.336777 -0.569521,-4.326979 3.114013,-9.972851 3.291271,-13.815177 0.427522,-1.556517 1.317853,-3.251489 2.561825,-4.065632 -0.695658,2.079067 -1.412549,4.551417 -1.854374,6.519746 -0.586269,2.990098 -2.562596,5.929559 -1.879989,8.876978 1.036053,5.221748 2.106729,10.614514 -0.698148,12.734623 -3.595608,3.565078 -0.871659,6.06429 -2.864427,9.953397 -1.579208,2.229832 -0.683435,4.437838 -1.716172,6.196005 -1.030438,0.963713 -1.682806,6.159042 -0.874366,7.581447 5.483968,-4.75993 3.994195,-13.532765 6.717419,-16.328202 5.96692,-6.843141 1.536417,-17.58824 4.584216,-23.070425 1.722146,-2.708316 0.450847,-4.949873 2.088761,-7.462077 2.278438,-2.761253 0.80473,-5.561997 4.441589,-7.964371 6.478982,-5.3675035 -1.487752,-3.9342863 -5.272029,-2.002979 z m -9.868649,3.868498 c -6.322014,0.859228 -5.297482,5.930212 -9.265583,9.891386 -2.301857,1.694713 -2.832294,4.548494 -4.434355,6.304526 -2.017717,2.062342 -0.916586,9.485341 -2.477885,8.37003 -2.501446,0.646128 -0.801753,9.997085 -2.237589,8.655801 -1.6407833,-0.108868 -0.363686,5.165019 -2.3393921,7.024897 -1.8163452,1.891146 -2.5549097,4.53632 -4.1077594,6.420278 -1.6518371,1.975858 -2.2443424,4.795023 -1.2226644,5.816701 1.371378,1.371377 5.3118204,-1.524053 5.3118204,-3.903123 0.3628181,-2.14929 2.8432545,-3.258254 2.9021485,-5.416722 0.148311,-2.556886 2.836301,-4.095052 2.901632,-6.565493 0.40981,-3.557452 5.077399,-7.501154 4.550109,-10.741461 -0.313056,-3.402004 3.796272,-4.707231 3.534151,-7.843448 -0.457718,-2.690096 2.202029,-5.059281 1.623674,-7.603155 -0.116713,-2.962787 5.344458,-5.252898 5.523694,-7.544759 0.169625,-1.858264 2.310532,-2.85228 -0.262001,-2.865458 z m 82.798046,19.421553 c 1.04742,1.577525 1.03042,1.588257 -1.27537,0.784447 -4.90608,-1.61957 -26.912795,-1.522748 -29.349203,8.400132 -0.228695,-3.498318 1.181751,-10.373408 3.788479,-12.85929 6.279065,-3.533675 23.081134,-1.787384 26.836094,3.674711 z m -2.76278,8.791302 c -7.7104,-3.776953 -16.301796,-3.160035 -21.43376,1.23189 4.229206,-6.893568 18.68629,-5.731807 21.43376,-1.23189 z m -80.660032,1.893835 c 1.850422,-1.663856 4.097629,-4.030348 3.681945,-4.976442 -1.022565,-1.323811 -3.171209,4.122391 -3.681945,4.976442 z m 68.58186,-3.095935 c 1.94797,-0.180075 3.527932,1.418569 3.554822,3.010152 0.13506,1.794081 -1.20488,3.360115 -2.998264,3.504178 -1.79321,0.144055 -3.365865,-1.187735 -3.519164,-2.980179 -0.153093,-1.792539 1.170876,-3.371924 2.962611,-3.534151 z m 4.078822,0.08268 c 2.8931,0.379793 6.77403,1.464902 8.70386,3.67471 -1.56931,10.370778 -20.228433,5.827715 -23.841956,4.280358 -0.416499,-0.336272 5.887958,-6.755143 6.634736,-6.755143 0.31591,0 0.62189,1.121254 0.62189,2.289783 0,2.518667 2.133172,3.794739 4.332701,3.779319 3.079939,-0.02164 4.930739,-2.857675 3.625769,-5.296022 -0.78229,-1.461714 -0.9458,-1.970283 -0.077,-1.973005 z m -48.363457,3.265434 c 0.144221,1.776442 -1.285068,3.32721 -3.198255,3.470074 -1.913326,0.142849 -3.591403,-1.176102 -3.75481,-2.951242 -0.163311,-1.775108 1.249386,-3.339076 3.161048,-3.499527 1.845525,-0.102653 3.697111,1.404382 3.792017,2.980695 z m 77.160147,0.280604 c -1.84894,-0.385476 -3.80346,16.979003 -4.80487,23.913269 6.02562,-3.465258 6.44015,-10.996213 6.49882,-15.511198 0.0278,-4.383367 -0.82483,-8.397142 -1.69395,-8.402071 z M 26.402366,50.98213 c 0,1.470919 -0.479225,3.307908 -1.065051,4.082436 -2.82757,6.391264 1.237633,6.305584 1.76785,0.838708 0.0127,-1.111316 0.527394,-2.790836 1.144117,-3.73207 2.362004,-4.579681 -1.033433,-8.896135 -1.846916,-1.189074 z m -8.765873,-2.98535 c -1.485795,0.109892 -1.353136,4.451364 -2.455664,6.342767 -1.55875,2.757024 -0.801574,5.986891 -2.195214,8.761221 -1.257634,2.411405 -1.400178,4.341781 -0.36742,4.980059 1.13327,0.03243 0.636192,-1.939567 0.874038,-3.097678 0.822511,0.877684 1.194774,2.97212 0.599256,4.144124 -0.862956,1.507651 0.09001,2.994853 0.332279,4.346506 3.924205,12.557524 4.703273,4.277172 6.971151,-1.765784 -0.546709,4.4006 -1.794792,12.442669 0.246497,15.789216 2.354741,4.32031 -0.723814,5.016495 1.15135,9.810772 1.736731,2.307695 0.925543,10.056507 2.303736,11.616857 2.013513,2.01352 2.493814,0.85137 2.564183,-6.20272 0.0677,-6.785904 -0.841322,-9.987177 -2.283063,-13.965553 C 24.700727,86.194326 24.451617,76.204901 25.227589,71.96422 l 1.565966,16.699846 c 4.323374,-0.363982 1.10181,-10.13788 2.863908,-13.673068 1.229318,-1.751534 -0.474535,-5.628473 -0.03411,-6.477125 -1.832822,-0.236728 -6.558594,-0.244747 -4.632274,-3.737239 1.534516,-2.72198 -0.0817,-2.579132 -0.765328,-1.033529 -1.595145,2.905345 -5.195564,3.346696 -6.495211,0.0739 -1.181942,-2.416021 -2.989887,-3.765616 -1.548226,-6.654889 0.791285,-1.57379 2.533942,-9.241774 1.454176,-9.165334 z m 12.544972,18.222145 c 0.91925,-0.611198 2.440702,-2.147022 1.859317,-2.53628 -0.680236,-0.267456 -1.607584,1.685806 -1.859317,2.53628 z m 101.914705,-1.35754 c -0.53666,2.100615 -2.54869,3.885338 -4.13463,5.032767 -3.31108,2.360435 -3.64041,2.881198 -4.6793,7.397998 -2.07058,6.638322 -1.90614,7.167547 3.08302,3.278871 3.06996,-2.634959 6.14331,-11.016287 5.73091,-15.709636 z m -71.200303,3.916556 c 0.224634,-0.0075 0.31269,0.617916 0.318328,1.99781 0.507021,6.163398 5.737088,2.935476 9.036648,5.308489 2.179585,1.273313 5.271654,1.491226 7.340129,1.22e-4 3.301378,-2.95153 8.612142,0.839536 9.037174,-5.308611 0.0083,-2.007121 0.19041,-2.41759 0.714169,-1.607137 1.155811,1.788475 1.128284,6.221619 -0.601514,6.779948 -3.714533,0.981101 -9.511861,1.281247 -9.752685,5.569799 0.01955,1.645214 -4.617773,1.275763 -4.682609,0 -2.265129,-5.491821 -9.189077,-3.440192 -11.330574,-5.695889 -1.354207,-0.645239 -1.744668,-5.799997 -0.07907,-7.044531 z m 7.060036,18.013886 c 3.533886,0.35547 7.34977,0.761849 10.448972,0.136943 3.204382,-0.69251 8.783736,1.298652 12.462807,4.447791 3.6703,3.141639 3.869285,4.600075 0.645956,4.729943 l -35.18545,0.04961 c -3.175521,-0.31903 -2.993419,-1.663944 0.646472,-4.779553 3.1617,-2.706293 7.726156,-4.557156 10.981243,-4.584734 z M 62.31387,97.824746 h 23.215121 v 3.044774 c -0.392348,7.24121 -24.021891,7.09419 -23.215121,0.001 z m -5.669939,0.332798 c 2.094995,-0.01058 3.305098,0.487315 3.120739,2.524386 -0.04211,1.13473 -0.258913,1.30768 -1.274858,0.524 l -3.431315,-2.972422 c 0.571458,-0.04391 1.101974,-0.07353 1.585434,-0.07596 z m 33.688901,0.02997 c 1.966648,0 2.141746,0.148944 1.329115,1.128096 -0.514789,0.620299 -1.533887,1.4479 -2.264976,1.83916 -1.126259,0.60272 -1.329118,0.43018 -1.329118,-1.12809 0,-1.575948 0.323966,-1.839166 2.264979,-1.839166 z"
       sodipodi:nodetypes="cccccccccccccccccccccccssssssccccccccccccccsccccccccccccccccccccccccccccccccscccccccccccccscscccccccccccccsccccccccccccccccccccccccccccscccccccccccccccccccccccscccccccsccccssccsssssssssss" />
  </g>
</svg>
