<?xml version="1.0" encoding="UTF-8" standalone="no"?>
<!-- Creator: CorelDRAW X8 -->

<svg
   xml:space="preserve"
   width="512"
   height="512"
   version="1.1"
   style="clip-rule:evenodd;fill-rule:evenodd;image-rendering:optimizeQuality;shape-rendering:geometricPrecision;text-rendering:geometricPrecision"
   viewBox="0 0 512 512"
   id="svg29"
   sodipodi:docname="Vantage_Icon.svg"
   inkscape:version="1.2.2 (732a01da63, 2022-12-09)"
   xmlns:inkscape="http://www.inkscape.org/namespaces/inkscape"
   xmlns:sodipodi="http://sodipodi.sourceforge.net/DTD/sodipodi-0.dtd"
   xmlns="http://www.w3.org/2000/svg"
   xmlns:svg="http://www.w3.org/2000/svg"><sodipodi:namedview
   id="namedview31"
   pagecolor="#ffffff"
   bordercolor="#666666"
   borderopacity="1.0"
   inkscape:pageshadow="2"
   inkscape:pageopacity="0.0"
   inkscape:pagecheckerboard="0"
   showgrid="false"
   inkscape:zoom="0.51168566"
   inkscape:cx="8.7944618"
   inkscape:cy="421.157"
   inkscape:window-width="2560"
   inkscape:window-height="1361"
   inkscape:window-x="-9"
   inkscape:window-y="-9"
   inkscape:window-maximized="1"
   inkscape:current-layer="Layer_x0020_1"
   inkscape:showpageshadow="2"
   inkscape:deskcolor="#d1d1d1" />
 <defs
   id="defs4">
  <style
   type="text/css"
   id="style2">
   <![CDATA[
    .fil1 {fill:#8A0020}
    .fil2 {fill:#CA003E}
    .fil0 {fill:#CB013F}
    .fil3 {fill:#ED0049}
    .fil4 {fill:#FF2D59}
   ]]>
  </style>
 <style
   type="text/css"
   id="style918">
   <![CDATA[
    .fil1 {fill:#8A0020}
    .fil2 {fill:#CA003E}
    .fil0 {fill:#CB013F}
    .fil3 {fill:#ED0049}
    .fil4 {fill:#FF2D59}
   ]]>
  </style><style
   type="text/css"
   id="style965">
   <![CDATA[
    .fil1 {fill:#8A0020}
    .fil2 {fill:#CA003E}
    .fil0 {fill:#CB013F}
    .fil3 {fill:#ED0049}
    .fil4 {fill:#FF2D59}
   ]]>
  </style></defs>
 <g
   id="Layer_x0020_1"
   inkscape:label="Layer 1"
   inkscape:groupmode="layer">
  <metadata
   id="CorelCorpID_0Corel-Layer" />
  
 <g
   id="g2319"
   transform="matrix(1.5976758,0,0,1.5976758,-133.4898,-97.576194)"
   style="fill:#000000"><path
     style="clip-rule:evenodd;fill:#000000;fill-rule:evenodd;image-rendering:optimizeQuality;shape-rendering:geometricPrecision;text-rendering:geometricPrecision"
     d="m 366.73877,218.57629 -8.30588,-8.67232 h -5.86298 v 1.94046 l 0.77935,1.34987 1.7857,69.87471 c -0.0855,2.16527 -0.85199,3.39742 -2.6459,4.83052 l 6.69365,-0.28658 9.38824,-12.2391 z"
     id="path295-7"
     sodipodi:nodetypes="cccccccccc" /><path
     style="clip-rule:evenodd;fill:#000000;fill-opacity:1;fill-rule:evenodd;stroke:none;stroke-opacity:1;image-rendering:optimizeQuality;shape-rendering:geometricPrecision;text-rendering:geometricPrecision"
     d="m 328.92365,225.17374 c 12.04331,-3.31752 10.2111,-11.11562 9.06883,-25.73819 5.33626,2.76482 9.54149,6.33753 11.65992,11.40081 l 2.59109,61.40891 c 0.48183,16.99376 -7.2706,27.00935 -25.9973,27.7247 4.46513,-24.39077 8.72345,-48.81287 2.67746,-74.79623 z"
     id="path451-9"
     sodipodi:nodetypes="cccccc" /><path
     style="clip-rule:evenodd;fill:#000000;fill-opacity:1;fill-rule:evenodd;stroke:none;stroke-opacity:1;image-rendering:optimizeQuality;shape-rendering:geometricPrecision;text-rendering:geometricPrecision"
     d="m 317.80904,149.37072 3.80027,2.15924 -0.0864,1.20918 c 10.49941,17.59659 19.03767,36.5006 11.83265,65.90014 l -4.40485,2.59109 -11.31444,-16.84211 c 13.9514,-8.61352 3.16259,-34.54517 0.17277,-55.01754 z"
     id="path1062-2"
     sodipodi:nodetypes="ccccccc" /><path
     style="fill:#000000;fill-opacity:1;stroke:none;stroke-linecap:butt;stroke-linejoin:miter;stroke-opacity:1"
     d="M 167.125,327.375 166,326.5 l -0.25,-6.25 c -3.01309,2.71401 -5.7706,5.88022 -10.25,6 L 155.625,316 c -0.0657,-1.39433 -1.5248,-3.11504 -4.25,-2.25 l -21.875,5.375 3.75,-7.875 -13.25,-2.125 -3.25,-8.875 6.5,-0.25 9.875,-7.25 H 125.5 c -6.43733,6.29609 -13.24268,3.02364 -20,1 3.04797,3.76477 7.50618,9.93773 7.625,11.75 l 0.625,7.625 11.875,2.125 -4.125,12.875 c 5.05465,-2.13045 10.20977,-3.65806 15.5,-4.375 l -0.375,-2.625 14.25,-3 v 9.75 l -1.25,0.875 v 1.625 h 9.25 z"
     id="path4208"
     sodipodi:nodetypes="cccccccccccccccccccccccccc" /><path
     style="fill:#000000;fill-opacity:1;stroke:none;stroke-linecap:butt;stroke-linejoin:miter;stroke-opacity:1"
     d="m 321.24215,328.32658 4.51938,-3.54221 c 2.00316,-1.61768 3.42399,-1.75533 3.66436,2.07647 l 1.22145,9.40518 c 8.42254,-2.14045 10.17988,-8.21445 11.72595,-14.41314 8.43557,0.3703 18.0432,7.66639 25.28408,0.97716 -4.05745,-3.46369 -4.25226,-7.72655 -5.13011,-11.84809 12.65957,0.10059 16.33083,-1.19308 19.54325,-12.70312 -12.34003,2.44439 -23.01792,-7.41236 -10.87093,-7.93944 l 3.05363,-5.49654 c -2.72791,0.79648 -5.45582,1.61091 -8.18373,0.61073 -5.29357,6.7966 -8.28503,13.166 8.42802,15.87889 1.52706,8.93384 -9.4438,6.05645 -17.83321,5.61868 -1.84139,3.57494 -0.47737,8.00967 0.85502,9.28304 2.95367,2.08372 0.3091,4.02185 -2.32076,3.42007 -7.36455,-1.35533 -13.9824,-3.04009 -17.46678,-6.10726 0.37991,7.46708 1.6359,15.94389 -4.51938,15.87889 l -1.71003,-15.6346 c -2.13785,3.53189 -8.40845,4.32269 -8.42803,8.91661 0.26439,2.03698 -0.83584,3.81809 -1.83218,5.61868 z"
     id="path13985"
     sodipodi:nodetypes="cccccccccccccccccccc" /><path
     id="path2952"
     style="fill:#000000;fill-opacity:1;stroke:none;stroke-opacity:1"
     d="m 275.56055,191.2793 c 1.17071,8.14768 7.30565,13.95875 13.92383,19.54297 -11.1192,2.02935 -15.74364,-2.11065 -20.51954,-6.10743 0.28503,2.9722 0.8007,5.91177 0,9.03907 13.36158,-2.18639 26.5143,-3.85855 38.10938,-1.70899 6.52539,5.32715 8.59415,12.02508 8.79297,19.29883 -10.91403,-8.61538 -31.34957,-7.83418 -54.72071,-4.1543 1.18337,-5.7631 0.6049,-11.2551 -2.44336,-16.36718 -0.0377,10.63775 -4.6086,18.34927 -12.45898,23.9414 0.20968,-10.55252 2.38192,-21.52338 -4.64062,-30.53711 2.99835,8.05335 -4.08461,22.00932 -11.48243,20.03125 -1.40457,-7.17595 0.51385,-12.68933 -9.03906,-23.93945 -2.90783,8.1232 -20.97242,12.1695 -26.87109,4.88672 -1.99936,-1.69006 13.05165,-4.75336 14.16992,-12.94922 -2.07924,1.72393 -5.28593,1.99973 -8.55078,2.19922 1.50235,0.35721 3.00147,0.71613 2.19922,1.4668 -21.92137,3.9888 -42.97259,9.85945 -42.33203,62.58203 10.22301,4.74735 21.58633,7.11091 33.59765,8.11914 7.64152,0.41974 18.0524,0.27134 17.27539,2.41797 -2.14495,0.71854 -10.36914,1.0731 -15.97851,0.86523 16.46479,4.24138 6.78794,3.61 -6.64258,2.95313 22.02989,1.27894 22.88399,5.666 6.98828,4.90624 4.96662,2.24845 10.68843,4.57484 8.20508,6.04493 -3.77866,0.67409 -10.18585,-2.23899 -15.63477,-1.8125 17.12118,4.63524 13.51631,9.46514 -1.03515,3.88672 13.95476,6.74679 -0.0624,5.01287 -4.10352,2.76367 4.86691,3.66072 3.53477,4.18042 -0.43164,3.36718 l -17.70508,-3.54101 c 3.57272,35.29715 10.98381,49.86649 31.44531,66.96875 34.4046,28.60279 66.25754,20.64005 97.22657,0 19.20441,-15.82408 27.23092,-39.63448 30.53711,-66.81445 -7.43224,2.30504 -14.827,4.73388 -23.20899,4.03125 -6.89551,-1.42781 0.22135,-3.06076 3.66602,-4.64063 l -14.90235,1.83203 -0.24414,-3.05468 11.97071,-3.41993 -14.16993,1.34375 -0.24414,-3.17578 6.22852,-0.61133 c -5.79409,-1.38191 -1.70357,-1.9388 3.05469,-2.4414 -3.61006,-0.83719 -13.80588,-0.1165 -1.83203,-4.64258 l -8.67188,1.4668 v -3.05469 l 4.27344,-0.61133 c 1.52224,-0.0916 2.43246,-1.46484 0.12305,-1.46484 -4.19516,0.61731 -8.50195,1.31929 -7.93946,-1.71094 15.6855,-1.41806 31.62625,-2.1009 45.31641,-9.2832 1.87158,-11.54486 0.006,-22.88085 -2.19922,-34.19922 -9.75699,-25.49501 -31.91769,-24.2367 -49.10156,-33.71289 z m -87.61133,81.58008 c -1.26207,-0.0733 -2.58043,-0.13816 -3.98242,-0.18946 1.43367,0.0627 2.60886,0.12228 3.98242,0.18946 z m 4.81055,-62.46485 c 8.92791,-0.023 18.24061,2.21792 27.3457,3.23828 2.84485,4.15489 4.61566,8.71129 5.61914,13.55664 -16.16818,0.0709 -32.54589,-8.85811 -53.74414,3.60352 -1.70708,1.02064 -2.31923,-0.21786 -1.95508,-1.70899 1.10983,-5.86838 4.77416,-10.31776 7.20703,-15.45117 4.95242,-2.395 10.17056,-3.2245 15.52735,-3.23828 z m 98.61914,21.75195 c 9.288,0.12012 18.23273,5.46756 22.62304,15.32227 -1.83861,4.74445 -7.88805,2.83039 -9.73633,5.48828 -3.8431,3.45383 -8.18507,-1.11543 -2.28906,-2.90234 1.71961,-0.52523 3.30939,-1.54681 4.25196,-3.19141 -4.50474,-5.03256 -9.24716,-6.39539 -13.99024,-7.77344 11.78346,16.59951 -18.70864,18.49148 -9.50195,1.20899 -3.69945,2.63434 -7.44574,5.22052 -10.36328,8.63672 2.29134,2.29276 4.88152,3.39051 7.51367,4.32031 7.03054,1.66236 2.17562,5.31898 -1.81445,3.10742 -2.76197,-1.67973 -5.54826,-3.23017 -8.55079,-3.62695 -4.82026,-0.50162 -4.44232,-0.89808 -3.88671,-2.33203 5.41115,-12.20935 15.23782,-18.02895 24.84375,-18.25391 0.30018,-0.007 0.60077,-0.008 0.90039,-0.004 z m -95.66993,0.0664 c 0.29962,-0.004 0.60021,-0.003 0.9004,0.004 9.60593,0.22495 19.43063,6.0465 24.84179,18.25586 0.55561,1.43391 0.93551,1.83041 -3.88476,2.33203 -3.00253,0.39678 -5.78882,1.94722 -8.55079,3.62695 -3.99008,2.21156 -8.845,-1.44705 -1.81445,-3.10937 2.63215,-0.9298 5.22232,-2.02559 7.51367,-4.31836 -2.91755,-3.4162 -6.66383,-6.00242 -10.36328,-8.63672 9.2067,17.28251 -21.28542,15.39053 -9.50195,-1.20899 -4.74308,1.37805 -9.48745,2.74087 -13.99219,7.77344 0.94257,1.6446 2.5343,2.66618 4.25391,3.19141 5.89602,1.78691 1.55213,6.35418 -2.29102,2.90039 -1.84828,-2.65789 -7.89576,-0.74387 -9.73437,-5.48828 4.39032,-9.85473 13.33502,-15.20215 22.62304,-15.32227 z m 62.54493,50.18945 c 1.39585,0.0265 2.87977,0.48388 4.23632,1.58594 1.21547,0.8911 3.27726,2.34968 5.25196,0 0.48512,-1.14241 3.99807,-3.55117 2.62695,2.32031 -1.3428,4.19223 -5.09733,3.90557 -8.79492,3.72461 -5.41914,0.19526 -10.10073,1.73151 -14.25391,4.22852 -2.30129,0.94804 -4.69673,1.28663 -7.34179,0 -3.64572,-2.26545 -9.92908,-4.4995 -12.56641,-4.18945 -10.6666,0.99254 -8.78987,-2.13578 -11.22852,-3.75586 -3.83142,-2.98073 1.31604,-5.20748 2.375,-1.85743 1.85908,1.07988 3.31607,0.62902 4.60157,-0.4707 3.27257,-2.44353 7.79442,-1.58036 10.01562,0 11.93449,12.43457 13.01598,6.27105 20.58203,0 0.93634,-0.83679 2.34263,-1.46659 3.9043,-1.57226 0.19521,-0.0132 0.39239,-0.0175 0.5918,-0.0137 z m 0.54882,21.67969 c 1.76568,-0.0269 3.48707,0.19038 5.15235,0.73242 5.50103,1.95919 8.73151,6.27889 19.55273,2.70508 6.14509,-1.83273 7.23436,4.03881 0.95117,4.05859 -2.18413,0.11373 -7.5034,12.14373 -11.70312,15.15821 -5.65534,5.11928 -11.64818,4.66644 -17.61914,4.57812 h -26.94727 c -8.77522,0.0152 -15.31318,-1.91938 -16.06445,-8.89648 -0.10621,-2.73288 -7.76979,-11.40654 -8.99805,-10.82617 -3.10883,0.73485 -7.2685,-4.02023 0,-3.96875 14.26715,2.45408 10.54349,-0.9712 21.31446,-2.8086 3.27755,-0.89364 7.67922,-0.80196 9.83398,0 5.49142,2.70016 14.44447,1.43077 19.11523,0 1.83757,-0.43431 3.64644,-0.70549 5.41211,-0.73242 z m -15.75195,35.39063 c 9.68259,-0.007 19.37888,3.68117 23.38867,11.08398 2.03101,4.14429 -1.00082,3.00429 -2.17773,1.52734 -9.53134,-10.6979 -32.32447,-11.24468 -42.56836,0 -2.42744,2.72459 -3.3109,1.26002 -1.95313,-1.52734 3.95967,-7.37556 13.62797,-11.07717 23.31055,-11.08398 z" /><path
     style="fill:#000000"
     d="m 119.58025,218.6401 8.30588,-8.67232 h 5.86298 v 1.94046 l -0.77935,1.34987 -1.7857,69.87471 c 0.0855,2.16527 0.85199,3.39742 2.6459,4.83052 l -6.69365,-0.28658 -9.38824,-12.2391 z"
     id="path295"
     sodipodi:nodetypes="cccccccccc" /><path
     style="fill:#000000"
     d="m 120.19098,213.44892 4.7026,-5.61868 6.77906,-90.81504 -4.76367,-4.64152 z"
     id="path393" /><path
     style="fill:#000000"
     d="m 128.08637,206.68287 h 5.95952 l 4.10045,-62.30712 -2.89127,-2.81569 4.47916,-64.852808 -7.1455,-8.122663 h -2.25969 l -2.58814,37.822971 7.16869,8.46424 z"
     id="path395" /><path
     style="fill:#000000;fill-opacity:1;stroke:none;stroke-opacity:1"
     d="m 157.88395,224.99326 c -12.04331,-3.31752 -10.2111,-11.11562 -9.06883,-25.73819 -5.33626,2.76482 -9.54149,6.33753 -11.65992,11.40081 l -2.59109,61.40891 c -0.48183,16.99376 7.2706,27.00935 25.9973,27.7247 -4.46513,-24.39077 -8.72345,-48.81287 -2.67746,-74.79623 z"
     id="path451"
     sodipodi:nodetypes="cccccc" /><path
     style="fill:#000000;fill-opacity:1;stroke:none;stroke-opacity:1"
     d="m 169.97572,149.67882 -3.80027,2.15924 0.0864,1.20918 c -10.49941,17.59659 -19.03767,36.5006 -11.83265,65.90014 l 4.40485,2.59109 11.31444,-16.84211 c -13.9514,-8.61352 -3.16259,-34.54517 -0.17277,-55.01754 z"
     id="path1062"
     sodipodi:nodetypes="ccccccc" /><path
     id="path303"
     style="fill:#000000;fill-opacity:1;stroke:none;stroke-opacity:1"
     d="m 283.98438,134.73633 -12.61133,8.29297 c -20.47611,-6.89746 -38.36506,-5.09651 -55.27539,0 l -12.4375,-8.11914 c -10.89556,2.52981 -20.80098,7.53548 -30.40235,13.30078 -0.66532,17.76041 -11.67603,33.29 -1.55469,53.37695 l 35.58399,-15.375 c 0.12776,-18.39175 21.25112,-13.16468 30.23047,-10.36328 8.27694,-16.07755 36.07055,-2.75209 36.10156,10.70898 19.18085,0.87603 27.80058,4.69376 40.24805,15.20118 10.66649,-11.0432 4.93209,-37.84033 -0.86328,-52.85743 -8.37291,-5.80528 -18.75036,-9.94098 -29.01953,-14.16601 z m -107.48829,22.70508 c 1.68652,-0.141 3.18595,0.91485 2.72071,3.89648 -1.29236,5.25256 -2.04243,10.5841 -1.72657,16.06641 0.21163,2.75118 -6.53721,6.39844 -7.34179,0.34375 -0.60631,-6.15202 1.12808,-11.52237 2.5039,-17.01367 0.28326,-1.81305 2.15723,-3.15197 3.84375,-3.29297 z m 133.26172,0.28125 c 0.10351,-7.3e-4 0.20905,0.003 0.31446,0.0117 1.68651,0.14098 3.56049,1.48187 3.84375,3.29492 1.37581,5.49129 3.11215,10.86165 2.50586,17.01367 -0.80458,6.05468 -7.55343,2.40547 -7.3418,-0.3457 0.31586,-5.48231 -0.43616,-10.8119 -1.72852,-16.06446 -0.43616,-2.79526 0.85357,-3.8992 2.40625,-3.91015 z" /><path
     style="fill:#000000;fill-opacity:1;stroke:none;stroke-opacity:1"
     d="m 207.03629,133.01624 c 24.63264,-7.10848 49.26527,-7.86671 73.89791,0 l -9.77163,5.49653 c -18.08252,-5.61231 -36.47574,-5.78737 -55.20967,0 z"
     id="path1469"
     sodipodi:nodetypes="ccccc" /><path
     style="fill:#000000;fill-opacity:1;stroke:none;stroke-opacity:1"
     d="m 143.154,197.99754 4.88611,-1.95433 2.80934,-16.24532 -7.32872,0.61072 c 1.3858,-5.79495 5.57797,-6.41263 10.38235,-15.75674 -4.285,-1.98069 -8.82803,-3.05829 -13.43598,-3.90865 v 5.49654 h 3.42007 c 1.69683,3.13885 -1.6654,6.48006 -3.78651,9.77162 v 10.26021 c 5.33969,-5.80803 7.11711,-1.6023 3.05334,4.03079 z"
     id="path1471"
     sodipodi:nodetypes="cccccccccccc" /><path
     style="fill:#000000;fill-opacity:1;stroke:none;stroke-opacity:1"
     d="m 141.56006,151.49258 0.0864,6.04588 c 5.26831,-2.102 10.2844,-4.55712 12.35087,-11.1417 1.96154,-5.96443 5.92702,-9.22353 11.1417,-10.79622 l -3.88664,-10.53711 c -0.85308,-2.35897 -2.67848,-5.37369 3.19569,-3.19568 6.55768,2.9948 13.15854,4.82353 20.03778,-0.8637 -3.78294,-1.85493 -4.40576,-3.34118 1.55466,-4.05938 5.96022,-8.51613 11.30448,-11.7746 24.0108,-8.80972 -4.71638,-6.67859 -7.03278,-12.728618 -4.92308,-17.619429 6.11431,2.203508 12.6363,12.560559 18.31039,5.959515 4.9124,-4.50887 11.22062,2.425342 13.56005,5.700404 7.03402,-7.465579 12.14816,-2.525837 17.10122,3.45479 7.01358,-15.15474 13.87481,-8.065973 20.72875,0.0864 4.94281,-6.356735 9.80632,-4.3411 10.88259,8.55061 2.61449,-10.25612 6.0109,-18.638903 16.32388,-10.45074 4.96101,4.75624 12.36115,9.51877 17.27396,15.71929 5.84675,-4.21134 11.48371,-4.36656 16.8421,0.8637 -3.33191,4.75185 -6.91256,9.31235 -8.20512,15.63293 -0.87894,4.62885 -0.75199,8.67534 4.49122,9.75979 l 10.53712,1.72739 c 5.40873,0.90473 5.35828,0.8282 1.46828,4.83671 l -6.73684,7.60054 c 5.13008,2.02903 9.98947,4.80247 15.7193,5.18218 6.87901,0.87907 3.33132,3.48293 0.51822,4.83671 l -15.37382,6.90958 c 1.93672,4.83977 3.8546,9.69045 8.80971,12.78273 3.63646,2.15304 1.35992,3.51941 -0.0864,3.02294 -2.64064,-0.38312 -5.82778,-0.31172 -8.29149,-2.41835 v 6.47773 c 6.20077,2.83128 13.42836,1.18187 21.4197,-3.80027 -6.60997,-1.54343 -10.62221,-6.49488 -15.37382,-11.31444 -1.54504,-1.5241 -1.68921,-2.4685 1.7274,-4.49123 6.02271,-4.37328 15.23059,-4.53392 16.75573,-14.8556 l -16.06478,-1.55465 c -5.43291,-0.17068 -2.18736,-2.63133 -1.03643,-4.66397 2.74204,-3.38606 5.11384,-6.8544 9.24156,-9.93253 l -18.82861,-2.8502 c -8.32428,-1.43187 -3.51546,-8.60191 -1.81376,-11.83266 l 9.06882,-13.1282 c -7.65781,-3.95911 -15.2228,-8.9206 -23.66532,-4.40486 -9.03778,-6.80501 -21.73392,-25.613672 -34.5479,-11.74629 -3.09801,-1.95274 -6.21418,-4.468584 -9.1552,-1.55466 -6.95881,-6.332818 -16.23276,-10.87824 -23.31984,-1.036433 -4.5943,-3.670313 -9.38655,-6.640158 -16.06478,-2.936572 -4.78449,-2.13968 -9.75846,-8.163533 -14.25101,-4.318489 -9.23092,6.994268 -13.95319,-7.051852 -20.90148,-10.709851 -2.50912,8.165699 -2.24085,15.775922 0.95006,22.801615 -7.62178,0.34454 -16.08998,-0.0939 -17.44669,6.04589 -1.67244,5.32042 -9.00847,4.3458 -14.59649,1.9865 5.39753,4.56458 12.56244,10.2327 0.8637,8.2915 -7.75382,-2.20735 -13.77514,-5.2022 -19.77868,-8.20513 l 5.87314,17.79218 c 1.35298,3.63485 0.61043,5.12612 -2.59109,6.21862 -3.83029,0.72681 -4.35379,6.28661 -6.30499,9.75978 -1.74121,2.91584 -4.99082,3.56909 -7.60054,5.18216 z"
     id="path1496"
     sodipodi:nodetypes="cccccccccccccccccccccccccccccccccccccccccccccccccccccccc" /></g></g>
</svg>
